<svg xmlns="http://www.w3.org/2000/svg" width="25" height="20" viewBox="0 0 25 20">
    <path fill="#731AED" fill-rule="evenodd" d="M25 15.14c0 1.192-.482 2.234-1.443 3.128-.96.894-2.095 1.341-3.402 1.341-2.053 0-3.63-.679-4.732-2.039-1.102-1.359-1.652-3.24-1.652-5.643 0-2.234.947-4.487 2.842-6.76C18.509 2.898 20.79 1.174 23.46 0l1.233 1.983c-2.113 1.025-3.768 2.216-4.964 3.575-1.197 1.36-1.889 3.009-2.075 4.945h1.57c1.16 0 2.102.13 2.831.391.73.26 1.319.624 1.768 1.09.429.447.732.94.91 1.48.178.54.267 1.099.267 1.676m-13.771 0c0 1.192-.48 2.234-1.442 3.128-.962.894-2.096 1.341-3.402 1.341-2.055 0-3.632-.679-4.733-2.039C.551 16.211 0 14.33 0 11.927c0-2.234.946-4.487 2.842-6.76C4.737 2.898 7.02 1.174 9.69 0l1.231 1.983C8.81 3.008 7.154 4.199 5.958 5.558c-1.197 1.36-1.888 3.009-2.076 4.945h1.57c1.16 0 2.104.13 2.833.391.728.26 1.317.624 1.766 1.09.429.447.734.94.911 1.48.178.54.267 1.099.267 1.676"/>
</svg>
