<svg xmlns="http://www.w3.org/2000/svg" width="25" height="20" viewBox="0 0 25 20">
    <path fill="#731AED" fill-rule="evenodd" d="M0 4.47C0 3.276.481 2.234 1.442 1.34 2.403.447 3.538 0 4.845 0c2.052 0 3.63.68 4.732 2.039 1.102 1.36 1.652 3.24 1.652 5.643 0 2.234-.947 4.487-2.842 6.76-1.896 2.27-4.177 3.994-6.847 5.167L.307 17.626c2.113-1.025 3.768-2.216 4.964-3.575 1.197-1.36 1.889-3.009 2.075-4.945h-1.57c-1.16 0-2.103-.13-2.832-.391-.728-.26-1.318-.624-1.767-1.09a3.887 3.887 0 0 1-.91-1.48A5.341 5.341 0 0 1 0 4.47m13.771 0c0-1.192.48-2.234 1.442-3.128C16.175.447 17.309 0 18.615 0c2.054 0 3.632.68 4.733 2.039C24.449 3.399 25 5.279 25 7.682c0 2.234-.946 4.487-2.842 6.76-1.896 2.27-4.178 3.994-6.848 5.167l-1.232-1.983c2.113-1.025 3.768-2.216 4.964-3.575 1.197-1.36 1.888-3.009 2.075-4.945h-1.57c-1.158 0-2.103-.13-2.832-.391-.728-.26-1.317-.624-1.766-1.09a3.88 3.88 0 0 1-.911-1.48 5.341 5.341 0 0 1-.267-1.676"/>
</svg>
