<?xml version="1.0" encoding="utf-8"?>
<!-- Generator: Adobe Illustrator 22.0.1, SVG Export Plug-In . SVG Version: 6.00 Build 0)  -->
<svg version="1.1" id="Layer_1" xmlns="http://www.w3.org/2000/svg" xmlns:xlink="http://www.w3.org/1999/xlink" x="0px" y="0px"
	 viewBox="0 0 45 40.2" style="enable-background:new 0 0 45 40.2;" xml:space="preserve">
<style type="text/css">
	.st0{fill:#FFFFFF;}
	.st1{fill:none;stroke:#000000;stroke-width:2;stroke-linecap:round;stroke-linejoin:round;}
	.st2{fill:#8848FF;}
	.st3{fill:#FFDD00;}
	.st4{fill:#FFFFFF;stroke:#000000;stroke-width:2;stroke-linecap:round;stroke-linejoin:round;stroke-miterlimit:10;}
</style>
<g>
	<path class="st0" d="M92,37.8L92.1,1L92,37.8L92,37.8z"/>
	<path class="st1" d="M92.1,1L92,37.8"/>
	<path class="st0" d="M86.1,29.6l-4.2,8.1"/>
	<path class="st1" d="M86.1,29.6l-4.2,8.1"/>
	<path class="st0" d="M97.9,29.7l4.1,8.1"/>
	<path class="st1" d="M97.9,29.7l4.1,8.1"/>
	<path class="st0" d="M110,31.6l-36-0.1l0.1-26l36,0.1L110,31.6z"/>
	<path class="st1" d="M110,31.6l-36-0.1l0.1-26l36,0.1L110,31.6z"/>
	<path class="st0" d="M112.1,7.8l-40-0.2l0-4l40,0.2L112.1,7.8z"/>
	<path class="st1" d="M112.1,7.8l-40-0.2l0-4l40,0.2L112.1,7.8z"/>
	<path class="st0" d="M112,31.8l-40-0.1l0-4l40,0.1L112,31.8z"/>
	<path class="st1" d="M112,31.8l-40-0.1l0-4l40,0.1L112,31.8z"/>
	<path class="st2" d="M105.5,26.7l-4.9,0l0.1-14.9l4.9,0L105.5,26.7z"/>
	<path class="st3" d="M98.5,26.7l-5,0l0-7.9l5,0L98.5,26.7z M91.5,26.7l-5,0l0-4.4l5,0L91.5,26.7z M84.5,26.7l-5,0l0-2.4l5,0
		L84.5,26.7z"/>
</g>
<line class="st4" x1="22.6" y1="15" x2="22.5" y2="39"/>
<line class="st4" x1="16.1" y1="30.8" x2="11.9" y2="38.9"/>
<line class="st4" x1="29" y1="30.9" x2="33" y2="39"/>
<rect x="4.6" y="5" transform="matrix(1 3.799736e-03 -3.799736e-03 1 6.988943e-02 -8.555163e-02)" class="st4" width="35.9" height="26.7"/>
<rect x="2.6" y="1" transform="matrix(1 3.791317e-03 -3.791317e-03 1 1.333820e-02 -8.546928e-02)" class="st4" width="40" height="5.1"/>
<polygon class="st4" points="42.5,32.1 2.6,31.9 2.6,26.9 42.6,27.1 "/>
<g>
	
		<rect x="30.2" y="12" transform="matrix(1 3.789959e-03 -3.789959e-03 1 7.222325e-02 -0.1224)" class="st2" width="4.3" height="13.9"/>
	
		<rect x="23.6" y="18.6" transform="matrix(1 3.789959e-03 -3.789959e-03 1 8.452001e-02 -9.764131e-02)" class="st3" width="4.3" height="7.3"/>
	
		<rect x="17.1" y="21.8" transform="matrix(1 3.789959e-03 -3.789959e-03 1 9.042536e-02 -7.289387e-02)" class="st3" width="4.3" height="4.1"/>
	
		<rect x="10.6" y="23.6" transform="matrix(1 3.789959e-03 -3.789959e-03 1 9.380563e-02 -4.816078e-02)" class="st3" width="4.3" height="2.3"/>
</g>
</svg>
