<?xml version="1.0" encoding="utf-8"?>
<!-- Generator: Adobe Illustrator 22.0.1, SVG Export Plug-In . SVG Version: 6.00 Build 0)  -->
<svg version="1.1" id="Layer_1" xmlns="http://www.w3.org/2000/svg" xmlns:xlink="http://www.w3.org/1999/xlink" x="0px" y="0px"
	 viewBox="0 0 46 41" style="enable-background:new 0 0 46 41;" xml:space="preserve">
<style type="text/css">
	.st0{fill:#EEEEEE;}
	.st1{fill:none;stroke:#222222;stroke-width:2;stroke-linecap:round;stroke-linejoin:round;stroke-miterlimit:10;}
	.st2{fill:none;stroke:#222222;stroke-linecap:round;stroke-linejoin:round;stroke-miterlimit:10;}
	.st3{fill:#FFFFFF;stroke:#222222;stroke-width:2;stroke-miterlimit:10;}
	.st4{fill:#FFDB15;stroke:#222222;stroke-width:2;stroke-miterlimit:10;}
	.st5{fill:none;stroke:#222222;stroke-width:2;stroke-miterlimit:10;}
</style>
<rect x="2" y="4" class="st0" width="30" height="10"/>
<path class="st1" d="M30.3,36.1H3.5c-1.1,0-2-0.9-2-2V5.6c0-1.1,0.9-2,2-2h26.8c1.1,0,2,0.9,2,2v28.5C32.3,35.2,31.4,36.1,30.3,36.1
	z"/>
<line class="st1" x1="1.9" y1="13" x2="31.9" y2="13"/>
<g>
	<line class="st1" x1="8.9" y1="2" x2="8.9" y2="5"/>
	<line class="st1" x1="24.9" y1="2" x2="24.9" y2="5"/>
</g>
<g>
	<line class="st2" x1="7.4" y1="21" x2="9.4" y2="21"/>
	<line class="st2" x1="13.1" y1="21" x2="15.1" y2="21"/>
	<line class="st2" x1="18.7" y1="21" x2="20.7" y2="21"/>
	<line class="st2" x1="24.4" y1="21" x2="26.4" y2="21"/>
</g>
<g>
	<line class="st2" x1="7.3" y1="28" x2="9.3" y2="28"/>
	<line class="st2" x1="13" y1="28" x2="15" y2="28"/>
	<line class="st2" x1="18.7" y1="28" x2="20.7" y2="28"/>
</g>
<g>
	<g>
		<path class="st3" d="M19.3,31.6v6.1c0,1.4,2.8,2.6,6.2,2.6s6.2-1.1,6.2-2.6v-6.1H19.3z"/>
		<path class="st3" d="M19.3,28.9v4.2c0,1.4,2.8,2.6,6.2,2.6s6.2-1.1,6.2-2.6v-4.2H19.3z"/>
		<ellipse class="st4" cx="25.5" cy="28" rx="6.2" ry="2.6"/>
	</g>
	<g>
		<path class="st3" d="M31.7,28.2v9.4c0,1.4,2.8,2.6,6.2,2.6c3.4,0,6.2-1.1,6.2-2.6v-9.4H31.7z"/>
		<path class="st5" d="M31.7,30.8c0,1.4,2.8,2.6,6.2,2.6c3.4,0,6.2-1.1,6.2-2.6"/>
	</g>
	<path class="st3" d="M31.7,17.7v14.4c0,1.4,2.8,2.6,6.2,2.6c3.4,0,6.2-1.1,6.2-2.6V17.7H31.7z"/>
	<path class="st5" d="M31.7,26.9c0,1.4,2.8,2.6,6.2,2.6c3.4,0,6.2-1.1,6.2-2.6"/>
	<path class="st5" d="M31.7,21.5c0,1.4,2.8,2.6,6.2,2.6c3.4,0,6.2-1.1,6.2-2.6"/>
	<ellipse class="st4" cx="37.8" cy="16.4" rx="6.2" ry="2.6"/>
</g>
</svg>
