<?xml version="1.0" encoding="UTF-8"?>
<svg width="70px" height="70px" viewBox="0 0 70 70" version="1.1" xmlns="http://www.w3.org/2000/svg" xmlns:xlink="http://www.w3.org/1999/xlink">
    <!-- Generator: sketchtool 50 (54983) - http://www.bohemiancoding.com/sketch -->
    <title>47516D2A-48F7-4B5E-9194-026B5FDDF5D5</title>
    <desc>Created with sketchtool.</desc>
    <defs></defs>
    <g id="total" stroke="none" stroke-width="1" fill="none" fill-rule="evenodd">
        <g id="07-2.-MY-투자_미동의자_[MASV07Z02]" transform="translate(-51.000000, -393.000000)">
            <g id="Text-03" transform="translate(51.000000, 393.000000)">
                <g id="P/IMG/P2P/chalander">
                    <g id="Icon">
                        <rect id="Area" fill="#FFFFFF" x="0" y="0" width="70" height="70"></rect>
                        <g id="Group-22" transform="translate(6.000000, 15.000000)">
                            <g id="Group-21" transform="translate(20.000000, 0.000000)">
                                <rect id="Rectangle-3" fill="#EEEEEE" x="1" y="3" width="37" height="11"></rect>
                                <rect id="Line-246" stroke="#222222" stroke-width="2" x="1" y="2.1875" width="37.375" height="37.375" rx="3"></rect>
                                <path d="M9.84375,0.09375 L9.84375,4.46875" id="Line-245" stroke="#222222" stroke-width="2" stroke-linecap="round"></path>
                                <path d="M29.53125,0.09375 L29.53125,4.46875" id="Line-244" stroke="#222222" stroke-width="2" stroke-linecap="round"></path>
                                <path d="M1.09375,13.21875 L38.28125,13.21875" id="Line-243" stroke="#222222" stroke-width="2" stroke-linecap="round" stroke-linejoin="round"></path>
                                <path d="M28,22.1875 L30.1875,22.1875" id="Line-241" stroke="#222222" stroke-linecap="round" stroke-linejoin="round"></path>
                                <path d="M22,29.1875 L24.1875,29.1875" id="Line-240" stroke="#222222" stroke-linecap="round" stroke-linejoin="round"></path>
                                <path d="M16,29.1875 L18.1875,29.1875" id="Line-239" stroke="#222222" stroke-linecap="round" stroke-linejoin="round"></path>
                                <path d="M9,30.1875 L11.1875,30.1875" id="Line-238" stroke="#222222" stroke-linecap="round" stroke-linejoin="round"></path>
                                <path d="M16,22.1875 L18.1875,22.1875" id="Line-237" stroke="#222222" stroke-linecap="round" stroke-linejoin="round"></path>
                                <path d="M22,22.1875 L24.1875,22.1875" id="Line-237" stroke="#222222" stroke-linecap="round" stroke-linejoin="round"></path>
                            </g>
                            <g id="Group-20" transform="translate(0.000000, 14.000000)" stroke="#222222" stroke-width="2">
                                <g id="Group-10" transform="translate(9.000000, 0.000000)">
                                    <g id="Group-9" transform="translate(0.000000, 15.000000)" fill="#FFFFFF">
                                        <path d="M23,4.67014788 L2,4.67014788 L2,7.96472032 L1.99983777,7.98273213 C1.99823489,8.07170868 1.99823489,8.14632364 1.99926363,8.31643617 C1.99980972,8.4063924 1.99980972,8.4063924 2,8.5 C2,8.83211115 2.90723904,9.48492324 4.65943363,10.0181999 C6.7007052,10.6394564 9.5015163,11 12.5,11 C15.4984837,11 18.2992948,10.6394564 20.3405664,10.0181999 C22.092761,9.48492324 23,8.83211115 23,8.5 C23.0001903,8.4063924 23.0001903,8.4063924 23.0007364,8.31643617 C23.0017651,8.14632364 23.0017651,8.07170868 23,7.96472032 L23,4.67014788 Z" id="Combined-Shape"></path>
                                        <ellipse id="Oval-7-Copy-3" cx="12.5" cy="3.5" rx="10.5" ry="2.5"></ellipse>
                                    </g>
                                    <g id="Group-9-Copy" transform="translate(0.000000, 10.000000)" fill="#FFFFFF">
                                        <path d="M23,4.67014788 L2,4.67014788 L2,7.96472032 L1.99983777,7.98273213 C1.99823489,8.07170868 1.99823489,8.14632364 1.99926363,8.31643617 C1.99980972,8.4063924 1.99980972,8.4063924 2,8.5 C2,8.83211115 2.90723904,9.48492324 4.65943363,10.0181999 C6.7007052,10.6394564 9.5015163,11 12.5,11 C15.4984837,11 18.2992948,10.6394564 20.3405664,10.0181999 C22.092761,9.48492324 23,8.83211115 23,8.5 C23.0001903,8.4063924 23.0001903,8.4063924 23.0007364,8.31643617 C23.0017651,8.14632364 23.0017651,8.07170868 23,7.96472032 L23,4.67014788 Z" id="Combined-Shape"></path>
                                        <ellipse id="Oval-7-Copy-3" cx="12.5" cy="3.5" rx="10.5" ry="2.5"></ellipse>
                                    </g>
                                    <g id="Group-9-Copy-2" transform="translate(0.000000, 5.000000)" fill="#FFFFFF">
                                        <path d="M23,4.67014788 L2,4.67014788 L2,7.96472032 L1.99983777,7.98273213 C1.99823489,8.07170868 1.99823489,8.14632364 1.99926363,8.31643617 C1.99980972,8.4063924 1.99980972,8.4063924 2,8.5 C2,8.83211115 2.90723904,9.48492324 4.65943363,10.0181999 C6.7007052,10.6394564 9.5015163,11 12.5,11 C15.4984837,11 18.2992948,10.6394564 20.3405664,10.0181999 C22.092761,9.48492324 23,8.83211115 23,8.5 C23.0001903,8.4063924 23.0001903,8.4063924 23.0007364,8.31643617 C23.0017651,8.14632364 23.0017651,8.07170868 23,7.96472032 L23,4.67014788 Z" id="Combined-Shape"></path>
                                        <ellipse id="Oval-7-Copy-3" cx="12.5" cy="3.5" rx="10.5" ry="2.5"></ellipse>
                                    </g>
                                    <g id="Group-9-Copy-3">
                                        <path d="M23,4.67014788 L2,4.67014788 L2,7.96472032 L1.99983777,7.98273213 C1.99823489,8.07170868 1.99823489,8.14632364 1.99926363,8.31643617 C1.99980972,8.4063924 1.99980972,8.4063924 2,8.5 C2,8.83211115 2.90723904,9.48492324 4.65943363,10.0181999 C6.7007052,10.6394564 9.5015163,11 12.5,11 C15.4984837,11 18.2992948,10.6394564 20.3405664,10.0181999 C22.092761,9.48492324 23,8.83211115 23,8.5 C23.0001903,8.4063924 23.0001903,8.4063924 23.0007364,8.31643617 C23.0017651,8.14632364 23.0017651,8.07170868 23,7.96472032 L23,4.67014788 Z" id="Combined-Shape" fill="#FFFFFF"></path>
                                        <ellipse id="Oval-7-Copy-3" fill="#FFDB15" cx="12.5" cy="3.5" rx="10.5" ry="2.5"></ellipse>
                                    </g>
                                </g>
                                <circle id="Oval-11" fill="#FFDB15" cx="8" cy="18" r="8"></circle>
                            </g>
                        </g>
                    </g>
                </g>
            </g>
        </g>
    </g>
</svg>