<?xml version="1.0" encoding="utf-8"?>
<!-- Generator: Adobe Illustrator 22.0.1, SVG Export Plug-In . SVG Version: 6.00 Build 0)  -->
<svg version="1.1" id="Layer_1" xmlns="http://www.w3.org/2000/svg" xmlns:xlink="http://www.w3.org/1999/xlink" x="0px" y="0px"
	 viewBox="0 0 70 70" style="enable-background:new 0 0 70 70;" xml:space="preserve">
<style type="text/css">
	.st0{filter:url(#Adobe_OpacityMaskFilter);}
	.st1{fill:#FFFFFF;}
	.st2{mask:url(#b_1_);fill:none;stroke:#FFDB15;stroke-width:4;stroke-dasharray:6,2;}
	.st3{fill:none;stroke:#000000;stroke-width:2;}
	.st4{filter:url(#Adobe_OpacityMaskFilter_1_);}
	.st5{mask:url(#d_1_);fill:#EEEEEE;}
	.st6{filter:url(#Adobe_OpacityMaskFilter_2_);}
	.st7{mask:url(#d_2_);enable-background:new    ;}
	.st8{fill:#731AED;}
	.st9{filter:url(#Adobe_OpacityMaskFilter_3_);}
	.st10{mask:url(#d_3_);fill:#FFDB15;}
	.st11{filter:url(#Adobe_OpacityMaskFilter_4_);}
	.st12{mask:url(#d_4_);fill:none;stroke:#000000;stroke-width:2;}
	.st13{filter:url(#Adobe_OpacityMaskFilter_5_);}
	.st14{mask:url(#d_5_);fill:#FFFFFF;}
	.st15{filter:url(#Adobe_OpacityMaskFilter_6_);}
	.st16{mask:url(#d_6_);fill:none;stroke:#000000;}
</style>
<g>
	<g transform="translate(6 22)">
		<defs>
			<filter id="Adobe_OpacityMaskFilter" filterUnits="userSpaceOnUse" x="-2" y="-2" width="51.3" height="36">
				<feColorMatrix  type="matrix" values="1 0 0 0 0  0 1 0 0 0  0 0 1 0 0  0 0 0 1 0"/>
			</filter>
		</defs>
		<mask maskUnits="userSpaceOnUse" x="-2" y="-2" width="51.3" height="36" id="b_1_">
			<g class="st0">
				<path id="a_1_" class="st1" d="M5,0C2.2,0,0,2.2,0,5v22c0,2.8,2.2,5,5,5h37.3c2.8,0,5-2.2,5-5c0,0,0,0,0,0V5c0-2.8-2.2-5-5-5H5z
					"/>
			</g>
		</mask>
		<path class="st2" d="M42.3,32H5c-2.8,0-5-2.2-5-5V5c0-2.8,2.2-5,5-5h37.3c2.8,0,5,2.2,5,5v22C47.3,29.8,45.1,32,42.3,32z"/>
	</g>
	<g transform="translate(4 8)">
		<path class="st1" d="M16.8,48.2c-1.7,0-3-1.3-3-3v-18c0-1.7,1.3-3,3-3h31c1.7,0,3,1.3,3,3v18c0,1.7-1.3,3-3,3H16.8z"/>
		<path d="M47.8,23.2h-31c-2.2,0-4,1.8-4,4v18c0,2.2,1.8,4,4,4h31c2.2,0,4-1.8,4-4v-18C51.8,25,50,23.2,47.8,23.2 M47.8,25.2
			c1.1,0,2,0.9,2,2v18c0,1.1-0.9,2-2,2h-31c-1.1,0-2-0.9-2-2v-18c0-1.1,0.9-2,2-2H47.8"/>
		<path class="st3" d="M24.3,53H40 M28,48v4 M36,48v4"/>
		<defs>
			<filter id="Adobe_OpacityMaskFilter_1_" filterUnits="userSpaceOnUse" x="17.8" y="28.2" width="29" height="16">
				<feColorMatrix  type="matrix" values="1 0 0 0 0  0 1 0 0 0  0 0 1 0 0  0 0 0 1 0"/>
			</filter>
		</defs>
		<mask maskUnits="userSpaceOnUse" x="17.8" y="28.2" width="29" height="16" id="d_1_">
			<g class="st4">
				<path id="c_1_" class="st1" d="M0,54h63V0H0V54z"/>
			</g>
		</mask>
		<path class="st5" d="M17.8,44.2h29v-16h-29V44.2z"/>
		<defs>
			<filter id="Adobe_OpacityMaskFilter_2_" filterUnits="userSpaceOnUse" x="19.1" y="31.6" width="26.2" height="10">
				<feColorMatrix  type="matrix" values="1 0 0 0 0  0 1 0 0 0  0 0 1 0 0  0 0 0 1 0"/>
			</filter>
		</defs>
		<mask maskUnits="userSpaceOnUse" x="19.1" y="31.6" width="26.2" height="10" id="d_2_">
			<g class="st6">
				<path id="c_2_" class="st1" d="M0,54h63V0H0V54z"/>
			</g>
		</mask>
		<g class="st7">
			<path class="st8" d="M24.1,31.8V33h-3.5v2.4h3v1.2h-3v3.2h-1.5v-8H24.1z"/>
			<path class="st8" d="M26.8,32.5c0,0.1,0,0.2-0.1,0.3c0,0.1-0.1,0.2-0.2,0.3c-0.1,0.1-0.2,0.1-0.3,0.2s-0.2,0.1-0.3,0.1
				c-0.1,0-0.2,0-0.3-0.1s-0.2-0.1-0.3-0.2c-0.1-0.1-0.1-0.2-0.2-0.3c0-0.1-0.1-0.2-0.1-0.3c0-0.1,0-0.2,0.1-0.3
				c0-0.1,0.1-0.2,0.2-0.3c0.1-0.1,0.2-0.1,0.3-0.2s0.2-0.1,0.3-0.1c0.1,0,0.2,0,0.3,0.1s0.2,0.1,0.3,0.2c0.1,0.1,0.1,0.2,0.2,0.3
				C26.8,32.3,26.8,32.4,26.8,32.5z M26.6,34.2v5.6h-1.4v-5.6H26.6z"/>
			<path class="st8" d="M28.1,39.8v-5.6h0.8c0.2,0,0.3,0.1,0.3,0.2l0.1,0.4c0.1-0.1,0.2-0.2,0.4-0.3c0.1-0.1,0.3-0.2,0.4-0.2
				s0.3-0.1,0.5-0.2c0.2,0,0.3-0.1,0.5-0.1c0.3,0,0.6,0.1,0.8,0.2s0.4,0.3,0.6,0.4c0.2,0.2,0.3,0.4,0.4,0.7c0.1,0.3,0.1,0.6,0.1,0.9
				v3.6h-1.4v-3.6c0-0.3-0.1-0.6-0.2-0.8c-0.2-0.2-0.4-0.3-0.7-0.3c-0.2,0-0.5,0.1-0.7,0.2s-0.4,0.3-0.6,0.4v4.1H28.1z"/>
			<path class="st8" d="M34.3,39.8v-5.6h0.8c0.2,0,0.3,0.1,0.3,0.2l0.1,0.4c0.1-0.1,0.2-0.2,0.4-0.3c0.1-0.1,0.3-0.2,0.4-0.2
				c0.1-0.1,0.3-0.1,0.5-0.2c0.2,0,0.3-0.1,0.5-0.1c0.3,0,0.6,0.1,0.8,0.2s0.4,0.3,0.6,0.4c0.2,0.2,0.3,0.4,0.4,0.7
				c0.1,0.3,0.1,0.6,0.1,0.9v3.6h-1.4v-3.6c0-0.3-0.1-0.6-0.2-0.8c-0.2-0.2-0.4-0.3-0.7-0.3c-0.2,0-0.5,0.1-0.7,0.2
				c-0.2,0.1-0.4,0.3-0.6,0.4v4.1H34.3z"/>
			<path class="st8" d="M45.3,34.2v7.5h-1.4v-2.6c-0.1,0.1-0.2,0.2-0.4,0.3c-0.1,0.1-0.3,0.2-0.4,0.2c-0.1,0.1-0.3,0.1-0.5,0.2
				c-0.2,0-0.3,0.1-0.5,0.1c-0.3,0-0.6-0.1-0.8-0.2c-0.3-0.1-0.5-0.3-0.7-0.6c-0.2-0.2-0.3-0.5-0.4-0.9s-0.2-0.8-0.2-1.2
				c0-0.4,0.1-0.8,0.2-1.2c0.1-0.4,0.3-0.7,0.5-0.9c0.2-0.3,0.5-0.5,0.8-0.6s0.6-0.2,1-0.2c0.2,0,0.3,0,0.5,0c0.1,0,0.3,0.1,0.4,0.1
				c0.1,0.1,0.2,0.1,0.3,0.2c0.1,0.1,0.2,0.2,0.3,0.3l0.1-0.3c0-0.1,0.1-0.1,0.1-0.2c0.1,0,0.1-0.1,0.2-0.1H45.3z M42.7,38.8
				c0.3,0,0.5-0.1,0.7-0.2c0.2-0.1,0.4-0.3,0.6-0.5v-2.5c-0.2-0.2-0.3-0.3-0.5-0.4c-0.2-0.1-0.4-0.1-0.6-0.1c-0.2,0-0.4,0-0.6,0.1
				c-0.2,0.1-0.3,0.2-0.4,0.3c-0.1,0.2-0.2,0.4-0.3,0.6c-0.1,0.2-0.1,0.5-0.1,0.8c0,0.3,0,0.6,0.1,0.8c0.1,0.2,0.1,0.4,0.2,0.6
				c0.1,0.1,0.2,0.2,0.4,0.3C42.3,38.8,42.5,38.8,42.7,38.8z"/>
		</g>
		<defs>
			<filter id="Adobe_OpacityMaskFilter_3_" filterUnits="userSpaceOnUse" x="34" y="1" width="28" height="29">
				<feColorMatrix  type="matrix" values="1 0 0 0 0  0 1 0 0 0  0 0 1 0 0  0 0 0 1 0"/>
			</filter>
		</defs>
		<mask maskUnits="userSpaceOnUse" x="34" y="1" width="28" height="29" id="d_3_">
			<g class="st9">
				<path id="c_3_" class="st1" d="M0,54h63V0H0V54z"/>
			</g>
		</mask>
		<path class="st10" d="M43.5,28.3c-1.1,1.3-4.2,2.3-8.5,1.4c1.6-2,1.8-4.5,0.7-7.7c0.1,0-1.7-4.4-1.7-7c0-7.7,6.3-14,14-14
			s14,6.3,14,14s-6.3,14-14,14C46.4,29,44.9,28.7,43.5,28.3"/>
		<defs>
			<filter id="Adobe_OpacityMaskFilter_4_" filterUnits="userSpaceOnUse" x="33" y="0" width="30" height="31">
				<feColorMatrix  type="matrix" values="1 0 0 0 0  0 1 0 0 0  0 0 1 0 0  0 0 0 1 0"/>
			</filter>
		</defs>
		<mask maskUnits="userSpaceOnUse" x="33" y="0" width="30" height="31" id="d_4_">
			<g class="st11">
				<path id="c_4_" class="st1" d="M0,54h63V0H0V54z"/>
			</g>
		</mask>
		<path class="st12" d="M43.5,28.3c-1.1,1.3-4.2,2.3-8.5,1.4c1.6-2,1.8-4.5,0.7-7.7c0.1,0-1.7-4.4-1.7-7c0-7.7,6.3-14,14-14
			s14,6.3,14,14s-6.3,14-14,14C46.4,29,44.9,28.7,43.5,28.3z"/>
		<defs>
			<filter id="Adobe_OpacityMaskFilter_5_" filterUnits="userSpaceOnUse" x="42" y="8" width="12" height="12">
				<feColorMatrix  type="matrix" values="1 0 0 0 0  0 1 0 0 0  0 0 1 0 0  0 0 0 1 0"/>
			</filter>
		</defs>
		<mask maskUnits="userSpaceOnUse" x="42" y="8" width="12" height="12" id="d_5_">
			<g class="st13">
				<path id="c_5_" class="st1" d="M0,54h63V0H0V54z"/>
			</g>
		</mask>
		<path class="st14" d="M54,19.2v-0.6c0-0.6-0.3-1.3-0.9-1.7c-0.9-0.7-1.9-1.3-2.9-1.8v-0.7c0.1-0.2,0.2-0.4,0.2-0.6
			c0.3-0.1,0.5-0.6,0.6-1c0.2-0.5,0.1-0.9,0-1.1c0.2-1,0.1-1.8-0.3-2.3c-0.1-0.2-0.4-0.3-0.6-0.4c-0.2-0.2-0.4-0.5-0.7-0.6
			C49,8.1,48.6,8,48.1,8C48,8,48,8,47.9,8c-0.2,0-0.4,0-0.6,0.1c-0.2,0.1-0.5,0.2-0.7,0.3c-0.2,0.2-0.5,0.3-0.7,0.5
			c-0.4,0.4-0.6,0.8-0.8,1.3c-0.1,0.4-0.1,0.8,0,1.1c0,0-0.1,0.1-0.1,0.1c-0.2,0.2-0.2,0.6,0,1.1c0.1,0.4,0.3,0.7,0.5,0.9
			c0.1,0.4,0.2,0.7,0.4,1v0.6c-0.4,0.2-1.7,0.9-2.9,1.8c-0.5,0.4-0.8,1-0.9,1.7v0.6c0,0.5,0.4,0.8,0.9,0.8h10.2
			C53.6,20,54,19.6,54,19.2"/>
		<defs>
			<filter id="Adobe_OpacityMaskFilter_6_" filterUnits="userSpaceOnUse" x="41.5" y="7.5" width="13" height="13">
				<feColorMatrix  type="matrix" values="1 0 0 0 0  0 1 0 0 0  0 0 1 0 0  0 0 0 1 0"/>
			</filter>
		</defs>
		<mask maskUnits="userSpaceOnUse" x="41.5" y="7.5" width="13" height="13" id="d_6_">
			<g class="st15">
				<path id="c_6_" class="st1" d="M0,54h63V0H0V54z"/>
			</g>
		</mask>
		<path class="st16" d="M54,19.2v-0.6c0-0.6-0.3-1.3-0.9-1.7c-0.9-0.7-1.9-1.3-2.9-1.8v-0.7c0.1-0.2,0.2-0.4,0.2-0.6
			c0.3-0.1,0.5-0.6,0.6-1c0.2-0.5,0.1-0.9,0-1.1c0.2-1,0.1-1.8-0.3-2.3c-0.1-0.2-0.4-0.3-0.6-0.4c-0.2-0.2-0.4-0.5-0.7-0.6
			C49,8.1,48.6,8,48.1,8C48,8,48,8,47.9,8c-0.2,0-0.4,0-0.6,0.1c-0.2,0.1-0.5,0.2-0.7,0.3c-0.2,0.2-0.5,0.3-0.7,0.5
			c-0.4,0.4-0.6,0.8-0.8,1.3c-0.1,0.4-0.1,0.8,0,1.1c0,0-0.1,0.1-0.1,0.1c-0.2,0.2-0.2,0.6,0,1.1c0.1,0.4,0.3,0.7,0.5,0.9
			c0.1,0.4,0.2,0.7,0.4,1v0.6c-0.4,0.2-1.7,0.9-2.9,1.8c-0.5,0.4-0.8,1-0.9,1.7v0.6c0,0.5,0.4,0.8,0.9,0.8h10.2
			C53.6,20,54,19.6,54,19.2z"/>
	</g>
</g>
</svg>
