<?xml version="1.0" encoding="UTF-8"?>
<svg width="70px" height="70px" viewBox="0 0 70 70" version="1.1" xmlns="http://www.w3.org/2000/svg" xmlns:xlink="http://www.w3.org/1999/xlink">
    <!-- Generator: sketchtool 50 (54983) - http://www.bohemiancoding.com/sketch -->
    <title>E8DECA6D-3F85-44A4-8260-6CAC4D5F87C0</title>
    <desc>Created with sketchtool.</desc>
    <defs></defs>
    <g id="total" stroke="none" stroke-width="1" fill="none" fill-rule="evenodd">
        <g id="07-2.-MY-투자_미동의자_[MASV07Z02]" transform="translate(-51.000000, -303.000000)">
            <g id="Text-02" transform="translate(51.000000, 303.000000)">
                <g id="P/IMG/P2P/bankbook">
                    <g id="icon">
                        <rect id="Area" fill="#FFFFFF" x="0" y="0" width="70" height="70"></rect>
                        <path d="M15,22 L15,43 C15,45.209139 16.790861,47 19,47 L56.3076923,47 C58.5168313,47 60.3076923,45.209139 60.3076923,43 L60.3076923,22 L15,22 Z" id="Rectangle-2" stroke="#222222" stroke-width="2" fill="#FFFFFF" transform="translate(37.653846, 34.500000) rotate(-180.000000) translate(-37.653846, -34.500000) "></path>
                        <rect id="Rectangle-3" fill="#D8D8D8" x="20" y="28" width="14" height="4"></rect>
                        <rect id="Rectangle-3-Copy" fill="#D8D8D8" x="20" y="34" width="22" height="2"></rect>
                        <path d="M14.9687783,47 L12.3805234,55.4118283 C12.3218917,55.6023815 12.2920815,55.8006305 12.2920815,56 C12.2920815,57.1045695 13.187512,58 14.2920815,58 L61.4760181,58 C61.6753877,58 61.8736367,57.9701898 62.0641898,57.911558 C63.1199142,57.5867198 63.7124144,56.4675526 63.3875762,55.4118283 L60.7993213,47 L14.9687783,47 Z" id="Rectangle-2-Copy" stroke="#222222" stroke-width="2" fill="#EEEEEE" transform="translate(37.884449, 52.500000) rotate(-360.000000) translate(-37.884449, -52.500000) "></path>
                        <polygon id="Path-2" fill="#FFFFFF" points="24.2873563 48 33.375 48.5 32.25 57 22 57"></polygon>
                        <polygon id="Path-2-Copy" fill="#FFFFFF" points="43 48 51.25 48 53.5 57 43.75 57"></polygon>
                        <g id="title" transform="translate(9.000000, 14.000000)">
                            <rect id="Rectangle-8" stroke="#222222" stroke-width="2" fill="#8848FF" x="1" y="1" width="32" height="16" rx="2"></rect>
                            <g id="Group" transform="translate(8.000000, 5.000000)" fill="#FFFFFF">
                                <path d="M1.46933333,4.0869 L2.5730719,4.0869 C2.84230065,4.0869 3.07775163,4.0529 3.27743791,3.9839 C3.47811765,3.9169 3.64402614,3.8189 3.7751634,3.6929 C3.90630065,3.5659 4.00465359,3.4129 4.07022222,3.2319 C4.13579085,3.0499 4.16857516,2.8479 4.16857516,2.6229 C4.16857516,2.4109 4.13579085,2.2189 4.07022222,2.0459 C4.00465359,1.8739 3.90630065,1.7269 3.7751634,1.6069 C3.64402614,1.4849 3.47811765,1.3929 3.27743791,1.3279 C3.07775163,1.2639 2.84230065,1.2329 2.5730719,1.2329 L1.46933333,1.2329 L1.46933333,4.0869 Z M1.46933333,5.2409 L1.46933333,8.0409 L0,8.0409 L0,0.0879 L2.5730719,0.0879 C3.10159477,0.0879 3.55858824,0.1499 3.94504575,0.2749 C4.3305098,0.3989 4.64941176,0.5739 4.90075817,0.7979 C5.15210458,1.0219 5.33788235,1.2889 5.4580915,1.6009 C5.57830065,1.9119 5.6379085,2.2529 5.6379085,2.6229 C5.6379085,3.0089 5.5743268,3.3609 5.4471634,3.6829 C5.31900654,4.0029 5.12826144,4.2789 4.87294118,4.5099 C4.61861438,4.7409 4.29971242,4.9209 3.91722876,5.0489 C3.5347451,5.1779 3.08669281,5.2409 2.5730719,5.2409 L1.46933333,5.2409 Z" id="Fill-1"></path>
                                <path d="M9.272,0 C9.63660131,0 9.96941176,0.054 10.2714248,0.162 C10.5744314,0.271 10.832732,0.424 11.0483137,0.621 C11.262902,0.819 11.4298039,1.058 11.5500131,1.337 C11.6712157,1.615 11.7308235,1.925 11.7308235,2.266 C11.7308235,2.56 11.6881046,2.831 11.6026667,3.08 C11.5162353,3.329 11.4019869,3.567 11.2579346,3.795 C11.1138824,4.022 10.9459869,4.242 10.7522614,4.455 C10.5595294,4.668 10.3578562,4.884 10.1462484,5.104 L8.36496732,6.936 C8.53981699,6.884 8.71069281,6.845 8.87858824,6.817 C9.0454902,6.79 9.20643137,6.776 9.35942484,6.776 L11.3860915,6.776 C11.5321307,6.776 11.648366,6.817 11.7338039,6.899 C11.8192418,6.982 11.8619608,7.092 11.8619608,7.227 L11.8619608,8.041 L6.44162092,8.041 L6.44162092,7.59 C6.44162092,7.498 6.46049673,7.403 6.49824837,7.304 C6.53699346,7.205 6.59858824,7.113 6.68203922,7.029 L9.0812549,4.609 C9.28094118,4.403 9.46075817,4.207 9.61871895,4.021 C9.7776732,3.834 9.91079739,3.648 10.017098,3.465 C10.1253856,3.281 10.2068497,3.096 10.2634771,2.907 C10.3201046,2.718 10.3479216,2.519 10.3479216,2.31 C10.3479216,2.119 10.321098,1.951 10.2664575,1.807 C10.211817,1.662 10.1333333,1.54 10.032,1.441 C9.9296732,1.342 9.80847059,1.268 9.66839216,1.219 C9.52732026,1.169 9.37035294,1.144 9.19550327,1.144 C8.87163399,1.144 8.60439216,1.227 8.39477124,1.392 C8.18515033,1.557 8.03911111,1.778 7.95466667,2.057 C7.9149281,2.196 7.85532026,2.296 7.77484967,2.356 C7.69437908,2.417 7.59304575,2.447 7.46886275,2.447 C7.41422222,2.447 7.35362092,2.442 7.28805229,2.431 L6.57871895,2.305 C6.63236601,1.923 6.73866667,1.589 6.89464052,1.301 C7.05160784,1.013 7.24732026,0.772 7.48277124,0.58 C7.71722876,0.388 7.98745098,0.243 8.29145098,0.146 C8.59545098,0.049 8.92230065,0 9.272,0" id="Fill-3"></path>
                                <path d="M14.6376,4.0869 L15.7413386,4.0869 C16.0105673,4.0869 16.2460183,4.0529 16.4457046,3.9839 C16.6463843,3.9169 16.8122928,3.8189 16.9434301,3.6929 C17.0745673,3.5659 17.1729203,3.4129 17.2384889,3.2319 C17.3040575,3.0499 17.3368418,2.8479 17.3368418,2.6229 C17.3368418,2.4109 17.3040575,2.2189 17.2384889,2.0459 C17.1729203,1.8739 17.0745673,1.7269 16.9434301,1.6069 C16.8122928,1.4849 16.6463843,1.3929 16.4457046,1.3279 C16.2460183,1.2639 16.0105673,1.2329 15.7413386,1.2329 L14.6376,1.2329 L14.6376,4.0869 Z M14.6376,5.2409 L14.6376,8.0409 L13.1682667,8.0409 L13.1682667,0.0879 L15.7413386,0.0879 C16.2698614,0.0879 16.7268549,0.1499 17.1133124,0.2749 C17.4987765,0.3989 17.8176784,0.5739 18.0690248,0.7979 C18.3203712,1.0219 18.506149,1.2889 18.6263582,1.6009 C18.7465673,1.9119 18.8061752,2.2529 18.8061752,2.6229 C18.8061752,3.0089 18.7425935,3.3609 18.6154301,3.6829 C18.4872732,4.0029 18.2965281,4.2789 18.0412078,4.5099 C17.786881,4.7409 17.4679791,4.9209 17.0854954,5.0489 C16.7030118,5.1779 16.2549595,5.2409 15.7413386,5.2409 L14.6376,5.2409 Z" id="Fill-5"></path>
                            </g>
                        </g>
                    </g>
                </g>
            </g>
        </g>
    </g>
</svg>