<?xml version="1.0" encoding="utf-8"?>
<!-- Generator: Adobe Illustrator 22.0.1, SVG Export Plug-In . SVG Version: 6.00 Build 0)  -->
<svg version="1.1" id="Layer_1" xmlns="http://www.w3.org/2000/svg" xmlns:xlink="http://www.w3.org/1999/xlink" x="0px" y="0px"
	 viewBox="0 0 83 77" style="enable-background:new 0 0 83 77;" xml:space="preserve">
<style type="text/css">
	.st0{fill:#FFDB15;}
	.st1{fill:#222222;}
	.st2{fill:#FFFFFF;stroke:#222222;stroke-width:2;stroke-linecap:round;stroke-linejoin:round;stroke-miterlimit:10;}
	.st3{fill:#FFDB15;stroke:#222222;stroke-width:2;stroke-linecap:round;stroke-linejoin:round;stroke-miterlimit:10;}
	.st4{fill:none;stroke:#731AED;stroke-width:1.5;stroke-linecap:round;stroke-linejoin:round;}
	.st5{fill:none;stroke:#731AED;stroke-width:1.5;stroke-linecap:round;stroke-linejoin:round;stroke-dasharray:2.1059,4.2119;}
	.st6{fill:#731AED;stroke:#731AED;stroke-width:1.5;stroke-linecap:round;stroke-linejoin:round;stroke-miterlimit:10;}
	.st7{fill:none;stroke:#222222;stroke-width:2;stroke-linecap:round;stroke-linejoin:round;stroke-miterlimit:10;}
	.st8{fill:none;stroke:#222222;stroke-width:1.25;stroke-linecap:round;stroke-linejoin:round;stroke-miterlimit:10;}
</style>
<g>
	<g>
		<circle class="st0" cx="22.4" cy="25.6" r="9"/>
		<path class="st1" d="M22.4,17.6c4.4,0,8,3.6,8,8c0,4.4-3.6,8-8,8s-8-3.6-8-8C14.4,21.2,18,17.6,22.4,17.6 M22.4,15.6
			c-5.5,0-10,4.5-10,10s4.5,10,10,10s10-4.5,10-10S27.9,15.6,22.4,15.6L22.4,15.6z"/>
	</g>
	<rect x="13.6" y="63" class="st2" width="10" height="7.6"/>
	<rect x="28.9" y="59.4" class="st2" width="10" height="11.3"/>
	<rect x="44.3" y="47.2" class="st2" width="10" height="23.4"/>
	<rect x="59.6" y="36" class="st3" width="10" height="34.6"/>
	<g>
		<g>
			<path class="st4" d="M56.5,22.2c-0.2,0.3-0.3,0.6-0.5,0.9"/>
			<path class="st5" d="M53.7,26.6c-7.5,10.8-18.3,20.3-32.2,26.3"/>
			<path class="st4" d="M19.5,53.7c-0.3,0.1-0.6,0.2-0.9,0.4"/>
		</g>
	</g>
	<polygon class="st6" points="59.4,24 58.5,17.3 52.8,20.8 	"/>
	<line class="st7" x1="6" y1="7" x2="6" y2="70.5"/>
	<polyline class="st7" points="2.3,9 6,5.3 9.7,9 	"/>
	<line class="st7" x1="80" y1="70.5" x2="6" y2="70.8"/>
	<polyline class="st7" points="76.7,67 80.3,70.7 76.7,74.3 	"/>
	<g>
		<polyline class="st8" points="22.5,23.3 24.2,28.8 25.9,23.3 		"/>
		<polyline class="st8" points="19.2,23.3 20.8,28.8 22.5,23.3 		"/>
		<line class="st8" x1="18.1" y1="25.6" x2="26.6" y2="25.6"/>
	</g>
</g>
</svg>
