<?xml version="1.0" encoding="UTF-8"?>
<svg width="34px" height="34px" viewBox="0 0 34 34" version="1.1" xmlns="http://www.w3.org/2000/svg" xmlns:xlink="http://www.w3.org/1999/xlink">
    <!-- Generator: sketchtool 49.3 (51167) - http://www.bohemiancoding.com/sketch -->
    <title>C411D55E-9B6A-4747-ADD5-3E2FFA9E0263</title>
    <desc>Created with sketchtool.</desc>
    <defs></defs>
    <g id="total" stroke="none" stroke-width="1" fill="none" fill-rule="evenodd">
        <g id="07-12-a.누적현황보기_진행중카드_빈화면_[MASV07Z12]" transform="translate(-163.000000, -433.000000)">
            <g id="Group-8" transform="translate(96.000000, 433.000000)">
                <g id="Group-5">
                    <g id="P/IMG/icon/done02" transform="translate(67.000000, 0.000000)">
                        <rect id="Rectangle" fill-opacity="0" fill="#D8D8D8" x="0" y="0" width="34" height="34"></rect>
                        <g id="Group" stroke-width="1">
                            <circle id="Oval" fill="#AA96F2" cx="17" cy="17" r="17"></circle>
                            <g id="Group-2" transform="translate(9.000000, 9.000000)">
                                <g id="Page-1" stroke="#FFFFFF" stroke-width="1.5">
                                    <path d="M0.837741667,2.305 L0.812825,13.746 C0.812825,14.851 3.39765833,15.745 6.58915833,15.745 C9.77849167,15.745 12.3644083,14.851 12.3644083,13.746 L12.3644083,2.305" id="Stroke-1" stroke-linecap="round" stroke-linejoin="round"></path>
                                    <path d="M0.812283333,10.0804 C0.812283333,11.1844 3.3982,12.0804 6.58861667,12.0804 C9.77795,12.0804 12.3638667,11.1844 12.3638667,10.0804" id="Stroke-3"></path>
                                    <path d="M0.812283333,6.4153 C0.812283333,7.5193 3.3982,8.4143 6.58861667,8.4143 C9.77795,8.4143 12.3638667,7.5193 12.3638667,6.4153" id="Stroke-5"></path>
                                    <path d="M12.363975,2.7493 C12.363975,3.8533 9.77805833,4.7483 6.588725,4.7483 C3.39830833,4.7483 0.812391667,3.8533 0.812391667,2.7493 C0.812391667,1.6453 3.39830833,0.7503 6.588725,0.7503 C9.77805833,0.7503 12.363975,1.6453 12.363975,2.7493 Z" id="Stroke-7"></path>
                                </g>
                                <circle id="Oval-7" fill="#FFFFFF" cx="12" cy="12" r="6"></circle>
                                <g id="Group-3" transform="translate(9.000000, 10.000000)" stroke="#AA96F2" stroke-linecap="round" stroke-width="1.5">
                                    <path d="M0,2.18181818 L2.18181818,4.36363636" id="Line"></path>
                                    <path d="M6,0 L2.18181818,4.36363636" id="Line"></path>
                                </g>
                            </g>
                        </g>
                    </g>
                </g>
            </g>
        </g>
    </g>
</svg>