<?xml version="1.0" encoding="utf-8"?>
<!-- Generator: Adobe Illustrator 22.0.1, SVG Export Plug-In . SVG Version: 6.00 Build 0)  -->
<svg version="1.1" id="Layer_1" xmlns="http://www.w3.org/2000/svg" xmlns:xlink="http://www.w3.org/1999/xlink" x="0px" y="0px"
	 viewBox="0 0 16 18" style="enable-background:new 0 0 16 18;" xml:space="preserve">
<style type="text/css">
	.st0{fill:none;stroke:#222222;stroke-width:1.5;stroke-linecap:round;stroke-linejoin:round;stroke-miterlimit:10;}
	.st1{fill:none;stroke:#222222;stroke-linecap:round;stroke-linejoin:round;stroke-miterlimit:10;}
	.st2{fill:#222222;}
	.st3{fill:#FFFFFF;stroke:#222222;stroke-width:1.5;stroke-linecap:round;stroke-linejoin:round;stroke-miterlimit:10;}
</style>
<title>2090865B-EE8A-42EA-94ED-6642FF83D543</title>
<desc>Created with sketchtool.</desc>
<g>
	<polygon class="st0" points="14.4,3.4 14.4,2.5 1.4,2.5 1.4,16.5 14.4,16.5 14.4,12.2 	"/>
	<g>
		<line class="st1" x1="4.9" y1="10" x2="10.9" y2="10"/>
	</g>
	<g>
		<line class="st1" x1="4.9" y1="12" x2="10.9" y2="12"/>
	</g>
	<g>
		<line class="st1" x1="4.9" y1="14" x2="10.9" y2="14"/>
	</g>
	<path class="st2" d="M8.8,8.5l-1.6,0C7.1,8.5,7,8.4,7,8.3V7c0-0.1,0.1-0.2,0.2-0.2h1.6C8.9,6.8,9,6.9,9,7v1.3
		C9,8.4,8.9,8.5,8.8,8.5z"/>
	<path class="st2" d="M11.3,8.5H9.7c-0.1,0-0.2-0.1-0.2-0.2V5.7c0-0.1,0.1-0.2,0.2-0.2l1.6,0c0.1,0,0.2,0.1,0.2,0.2v2.6
		C11.5,8.4,11.4,8.5,11.3,8.5z"/>
	<rect x="5.4" y="1.5" class="st3" width="5" height="2"/>
	<path class="st2" d="M6.3,8.5H4.7c-0.1,0-0.2-0.1-0.2-0.2V7.7c0-0.1,0.1-0.2,0.2-0.2h1.6c0.1,0,0.2,0.1,0.2,0.2v0.6
		C6.5,8.4,6.4,8.5,6.3,8.5z"/>
</g>
</svg>
