<?xml version="1.0" encoding="utf-8"?>
<!-- Generator: Adobe Illustrator 22.0.1, SVG Export Plug-In . SVG Version: 6.00 Build 0)  -->
<svg version="1.1" id="Layer_1" xmlns="http://www.w3.org/2000/svg" xmlns:xlink="http://www.w3.org/1999/xlink" x="0px" y="0px"
	 viewBox="0 0 43.5 42.4" style="enable-background:new 0 0 43.5 42.4;" xml:space="preserve">
<style type="text/css">
	.st0{fill:#FFFFFF;stroke:#222222;stroke-width:2;stroke-linecap:round;stroke-linejoin:round;stroke-miterlimit:10;}
	.st1{fill:#FFFFFF;}
	.st2{fill:#FFDB15;}
	.st3{fill:#8848FF;}
	.st4{fill:none;stroke:#222222;stroke-width:2;stroke-miterlimit:10;}
	.st5{fill:none;stroke:#222222;stroke-width:2;stroke-linecap:round;stroke-linejoin:round;stroke-miterlimit:10;}
	.st6{fill:none;stroke:#D8D8D8;stroke-width:2;stroke-linecap:round;stroke-linejoin:round;stroke-miterlimit:10;}
</style>
<g>
	<rect x="0.9" y="3" class="st0" width="30.2" height="38.2"/>
	<rect x="9.4" y="1" class="st0" width="13.1" height="5"/>
	<g>
		<g>
			<path class="st1" d="M31,20.1c0,0-10.2,1.3-10.2,11.4s10,9.8,10,9.8s6.5-0.9,7.7-3.4l-7.1-7.1L31,20.1z"/>
		</g>
		<polyline class="st2" points="31.5,30.7 39.2,23.4 42.1,30.2 39.7,38.1 32.4,30.8 		"/>
		<polygon class="st3" points="31.3,19.3 31.3,31.2 39.7,23 		"/>
		<circle class="st4" cx="31.5" cy="30.7" r="10.6"/>
		<polyline class="st5" points="31.5,20.9 31.5,30.7 38.5,37.7 		"/>
		<line class="st5" x1="31.7" y1="30.8" x2="39.1" y2="24.8"/>
	</g>
	<line class="st6" x1="9" y1="14.1" x2="22.3" y2="14.1"/>
	<line class="st6" x1="9" y1="19.3" x2="22" y2="19.3"/>
	<line class="st6" x1="9" y1="24.6" x2="18" y2="24.6"/>
	<line class="st6" x1="9" y1="29.9" x2="17" y2="29.9"/>
</g>
</svg>
