<?xml version="1.0" encoding="utf-8"?>
<!-- Generator: Adobe Illustrator 22.0.1, SVG Export Plug-In . SVG Version: 6.00 Build 0)  -->
<svg version="1.1" id="Layer_1" xmlns="http://www.w3.org/2000/svg" xmlns:xlink="http://www.w3.org/1999/xlink" x="0px" y="0px"
	 viewBox="0 0 41 40.2" style="enable-background:new 0 0 41 40.2;" xml:space="preserve">
<style type="text/css">
	.st0{fill:#FFFFFF;stroke:#222222;stroke-width:2;stroke-linecap:round;stroke-linejoin:round;}
	.st1{fill:#D8D8D8;}
	.st2{fill:#8848FF;}
	.st3{fill:#FFDB15;stroke:#222222;stroke-width:2;stroke-linecap:round;stroke-linejoin:round;stroke-miterlimit:10;}
	.st4{fill:#FFDB15;stroke:#222222;stroke-width:2;stroke-miterlimit:10;}
	.st5{fill:#222222;}
</style>
<rect x="1.2" y="10.9" class="st0" width="12.7" height="28.1"/>
<rect x="5.9" y="17.4" transform="matrix(-1 -4.485358e-11 4.485358e-11 -1 14.2222 38.0113)" class="st1" width="2.4" height="3.2"/>
<rect x="5.9" y="23.8" transform="matrix(-1 -4.409329e-11 4.409329e-11 -1 14.2222 50.7723)" class="st1" width="2.4" height="3.2"/>
<g>
	<rect x="12.2" y="1" class="st0" width="21.1" height="38"/>
	<g>
		<rect x="17.3" y="7.1" class="st2" width="4.2" height="3.4"/>
		<rect x="24" y="7.1" class="st2" width="4.2" height="3.4"/>
		<rect x="17.3" y="13.9" class="st2" width="4.2" height="3.4"/>
		<rect x="24" y="13.9" class="st2" width="4.2" height="3.4"/>
		<rect x="17.3" y="20.6" class="st2" width="4.2" height="3.4"/>
		<rect x="24" y="20.6" class="st2" width="4.2" height="3.4"/>
	</g>
</g>
<g>
	<line class="st3" x1="33" y1="30" x2="40" y2="37"/>
	<circle class="st4" cx="29.2" cy="25.8" r="6.5"/>
	<g>
		<path class="st5" d="M28.5,26.4h-1.8v-1.2h1.8v-1.9h1.4v1.9h1.8v1.2h-1.8v1.9h-1.4V26.4z"/>
	</g>
</g>
</svg>
