<?xml version="1.0" encoding="utf-8"?>
<!-- Generator: Adobe Illustrator 22.0.1, SVG Export Plug-In . SVG Version: 6.00 Build 0)  -->
<svg version="1.1" id="Layer_1" xmlns="http://www.w3.org/2000/svg" xmlns:xlink="http://www.w3.org/1999/xlink" x="0px" y="0px"
	 viewBox="0 0 49.6 42.8" style="enable-background:new 0 0 49.6 42.8;" xml:space="preserve">
<style type="text/css">
	.st0{fill:#FFFFFF;stroke:#222222;stroke-width:2;stroke-miterlimit:10;}
	.st1{fill:#FFDB15;stroke:#222222;stroke-width:2;stroke-miterlimit:10;}
	.st2{fill:none;stroke:#222222;stroke-width:2;stroke-miterlimit:10;}
	.st3{fill:#FFFFFF;stroke:#222222;stroke-width:2;stroke-linecap:round;stroke-linejoin:round;stroke-miterlimit:10;}
	.st4{fill:#8848FF;stroke:#8848FF;stroke-width:0.75;stroke-linecap:round;stroke-linejoin:round;stroke-miterlimit:10;}
	.st5{fill:none;stroke:#FFFFFF;stroke-width:1.25;stroke-linecap:round;stroke-linejoin:round;stroke-miterlimit:10;}
</style>
<path class="st0" d="M20.9,41.2c4.9,0,8.9-1.7,8.9-3.7v-8.8H12v8.8C12,39.5,16,41.2,20.9,41.2"/>
<path class="st0" d="M12,24.8v6.1c0,2,4,3.7,8.9,3.7s8.9-1.7,8.9-3.7v-6.1H12z"/>
<ellipse class="st1" cx="20.9" cy="23.6" rx="8.9" ry="3.7"/>
<path class="st0" d="M38.8,41.2c4.9,0,8.9-1.7,8.9-3.7V23.9H29.8v13.6C29.8,39.5,33.8,41.2,38.8,41.2"/>
<path class="st2" d="M29.8,27.6c0,2,4,3.7,8.9,3.7s8.9-1.7,8.9-3.7"/>
<path class="st3" d="M29.8,6.7v22.8c0,2,4,3.7,8.9,3.7s8.9-1.7,8.9-3.7V6.7H29.8z"/>
<path class="st2" d="M29.8,22c0,2,4,3.7,8.9,3.7s8.9-1.7,8.9-3.7"/>
<path class="st2" d="M29.8,14.2c0,2,4,3.7,8.9,3.7s8.9-1.7,8.9-3.7"/>
<ellipse class="st1" cx="38.8" cy="6.7" rx="8.9" ry="3.7"/>
<path class="st3" d="M11.7,41.5c0,0,7.9-3.9,8.9-8.8s0.5-12.5,0.5-12.5c-7.3,0.4-9.6-3.9-9.6-3.9s-2.5,4.2-9.8,3.9
	c0,0-0.5,7.5,0.5,12.5S11.5,41.5,11.7,41.5"/>
<path class="st4" d="M11.7,36.7c0,0,4.8-2.4,5.4-5.4c0.6-3,0.3-7.6,0.3-7.6c-4.4,0.2-5.9-2.4-5.9-2.4s-1.5,2.6-6,2.4
	c0,0-0.3,4.6,0.3,7.6S11.6,36.7,11.7,36.7z"/>
<g>
	<polyline class="st5" points="11.5,27.2 12.8,31.6 14.2,27.2 	"/>
	<polyline class="st5" points="8.8,27.2 10.1,31.6 11.5,27.2 	"/>
	<line class="st5" x1="7.9" y1="29" x2="14.8" y2="29"/>
</g>
</svg>
