<svg xmlns="http://www.w3.org/2000/svg" xmlns:xlink="http://www.w3.org/1999/xlink" width="70" height="70" viewBox="0 0 70 70">
    <defs>
        <rect id="a" width="60" height="20" rx="2"/>
        <path id="b" d="M.91 7.24V3.337h20.908v3.905c.003.163 0 .325 0 .486 0 1.758-4.68 3.182-10.454 3.182C5.59 10.91.909 9.485.909 7.727c0-.16-.003-.323 0-.486z"/>
        <ellipse id="c" cx="11.364" cy="3.182" rx="10.455" ry="3.182"/>
        <path id="d" d="M.91 7.24V3.337h20.908v3.905c.003.163 0 .325 0 .486 0 1.758-4.68 3.182-10.454 3.182C5.59 10.91.909 9.485.909 7.727c0-.16-.003-.323 0-.486z"/>
        <ellipse id="e" cx="11.364" cy="3.182" rx="10.455" ry="3.182"/>
        <path id="f" d="M.91 7.24V3.337h20.908v3.905c.003.163 0 .325 0 .486 0 1.758-4.68 3.182-10.454 3.182C5.59 10.91.909 9.485.909 7.727c0-.16-.003-.323 0-.486z"/>
        <ellipse id="g" cx="11.364" cy="3.182" rx="10.455" ry="3.182"/>
        <path id="h" d="M.91 7.24V3.337h20.908v3.905c.003.163 0 .325 0 .486 0 1.758-4.68 3.182-10.454 3.182C5.59 10.91.909 9.485.909 7.727c0-.16-.003-.323 0-.486z"/>
        <ellipse id="i" cx="11.364" cy="3.182" rx="10.455" ry="3.182"/>
    </defs>
    <g fill="none" fill-rule="evenodd">
        <path fill="#EEE" d="M42.148 21.44h3.63v16.407h-3.63zM57.296 16.175h3.63v21.672h-3.63zM49.722 26.011h3.63v11.836h-3.63z"/>
        <path stroke="#731AED" stroke-linecap="round" stroke-linejoin="round" stroke-width="2" d="M37 19.871l8.43-8.164 7.434 5.14L60.281 10"/>
        <g transform="translate(6 40)">
            <use fill="#FFF" xlink:href="#a"/>
            <rect width="58" height="18" x="1" y="1" stroke="#222" stroke-width="2" rx="2"/>
            <circle cx="22" cy="10" r="2" fill="#222"/>
            <circle cx="29" cy="10" r="2" fill="#222"/>
            <circle cx="36" cy="10" r="2" fill="#222"/>
            <circle cx="43" cy="10" r="2" fill="#222"/>
            <circle cx="50" cy="10" r="2" fill="#222"/>
            <path fill="#222" d="M17 10.032h-1.234l-.915 3.872h-1.67l-.82-3.872h-.733l-.84 3.872H9.116l-.894-3.872H7V8.787h.936L7.32 6h1.404l.639 2.787h1.191l.607-2.776h1.627l.628 2.776h1.213L15.234 6h1.447l-.628 2.787H17v1.245zm-4.883-1.245l-.085-.425h-.064l-.096.425h.245zm2.245 1.245h-.681L14 11.436h.064l.298-1.404zm-4.053 0h-.692l.32 1.404H10l.309-1.404z"/>
        </g>
        <g transform="translate(8 12)">
            <g transform="translate(0 13.636)">
                <use fill="#FFF" xlink:href="#b"/>
                <path stroke="#222" stroke-width="2" d="M20.818 4.336H1.91V7.26a11.705 11.705 0 0 0 0 .468c0 .886 4.26 2.182 9.455 2.182 5.194 0 9.454-1.296 9.454-2.182V7.56c.002-.154.002-.221 0-.32V4.337z"/>
            </g>
            <g transform="translate(0 13.636)">
                <use fill="#FFF" xlink:href="#c"/>
                <ellipse cx="11.364" cy="3.182" stroke="#222" stroke-width="2" rx="9.455" ry="2.182"/>
            </g>
            <g transform="translate(0 9.09)">
                <use fill="#FFF" xlink:href="#d"/>
                <path stroke="#222" stroke-width="2" d="M20.818 4.336H1.91V7.26a11.705 11.705 0 0 0 0 .468c0 .886 4.26 2.182 9.455 2.182 5.194 0 9.454-1.296 9.454-2.182V7.56c.002-.154.002-.221 0-.32V4.337z"/>
            </g>
            <g transform="translate(0 9.09)">
                <use fill="#FFF" xlink:href="#e"/>
                <ellipse cx="11.364" cy="3.182" stroke="#222" stroke-width="2" rx="9.455" ry="2.182"/>
            </g>
            <g transform="translate(0 4.545)">
                <use fill="#FFF" xlink:href="#f"/>
                <path stroke="#222" stroke-width="2" d="M20.818 4.336H1.91V7.26a11.705 11.705 0 0 0 0 .468c0 .886 4.26 2.182 9.455 2.182 5.194 0 9.454-1.296 9.454-2.182V7.56c.002-.154.002-.221 0-.32V4.337z"/>
            </g>
            <g transform="translate(0 4.545)">
                <use fill="#FFF" xlink:href="#g"/>
                <ellipse cx="11.364" cy="3.182" stroke="#222" stroke-width="2" rx="9.455" ry="2.182"/>
            </g>
            <g>
                <use fill="#FFF" xlink:href="#h"/>
                <path stroke="#222" stroke-width="2" d="M20.818 4.336H1.91V7.26a11.705 11.705 0 0 0 0 .468c0 .886 4.26 2.182 9.455 2.182 5.194 0 9.454-1.296 9.454-2.182V7.56c.002-.154.002-.221 0-.32V4.337z"/>
                <g>
                    <use fill="#FFDB15" xlink:href="#i"/>
                    <ellipse cx="11.364" cy="3.182" stroke="#222" stroke-width="2" rx="9.455" ry="2.182"/>
                </g>
            </g>
            <circle cx="21.727" cy="18.364" r="7.273" fill="#FFDB15" stroke="#222" stroke-width="2"/>
        </g>
    </g>
</svg>
