<?xml version="1.0" encoding="utf-8"?>
<!-- Generator: Adobe Illustrator 22.0.1, SVG Export Plug-In . SVG Version: 6.00 Build 0)  -->
<svg version="1.1" id="Layer_1" xmlns="http://www.w3.org/2000/svg" xmlns:xlink="http://www.w3.org/1999/xlink" x="0px" y="0px"
	 viewBox="0 0 50.9 39.8" style="enable-background:new 0 0 50.9 39.8;" xml:space="preserve">
<style type="text/css">
	.st0{fill:#D8D8D8;}
	.st1{fill:#FFFFFF;stroke:#222222;stroke-width:2;stroke-linecap:round;stroke-linejoin:round;}
	.st2{fill:none;stroke:#222222;stroke-width:2;stroke-linecap:round;stroke-linejoin:round;}
	.st3{fill:none;stroke:#222222;stroke-width:2;stroke-miterlimit:10;}
	.st4{fill:#FFFFFF;stroke:#222222;stroke-width:2;stroke-miterlimit:10;}
	.st5{fill:#FFDB15;stroke:#222222;stroke-width:2;stroke-miterlimit:10;}
</style>
<title>EE12356A-C24E-49B7-BB1E-A7BB1A4A213C</title>
<desc>Created with sketchtool.</desc>
<g>
	<polygon class="st0" points="28.8,33.1 18.4,33.1 20.1,23.6 27.1,23.6 	"/>
	<polygon class="st0" points="8.8,33.1 1,33.1 4.5,23.6 12.3,23.6 	"/>
	<polygon class="st0" points="38.3,33.1 46.2,33.1 42.7,23.6 34.9,23.6 	"/>
	<path class="st1" d="M43.1,22.7H4V4c0-1.6,1.3-3,3-3h33.1c1.7,0,3,1.4,3,3V22.7z"/>
	<path class="st2" d="M4.5,22.7h38.2l3.5,8.7c0,1.4-1.2,2.6-2.6,2.6h-40C2.2,34,1,32.8,1,31.4L4.5,22.7z"/>
	<rect x="9.5" y="7.1" class="st0" width="12.2" height="3.5"/>
	<rect x="9.5" y="12.3" class="st0" width="19.1" height="1.7"/>
	<path class="st3" d="M23.3,31"/>
	<path class="st3" d="M11,31"/>
</g>
<g>
	<g>
		<path class="st4" d="M24.3,29.4l-0.1,6.1c0,1.4,2.7,2.6,6.1,2.6c3.4,0,6.2-1.1,6.2-2.5l0.1-6.1L24.3,29.4z"/>
		<path class="st4" d="M24.3,26.7L24.3,31c0,1.4,2.7,2.6,6.1,2.6s6.2-1.1,6.2-2.5l0.1-4.2L24.3,26.7z"/>
		
			<ellipse transform="matrix(1.204732e-02 -0.9999 0.9999 1.204732e-02 4.1979 56.099)" class="st5" cx="30.5" cy="25.9" rx="2.6" ry="6.2"/>
	</g>
	<g>
		<path class="st4" d="M36.7,26.2l-0.1,9.4c0,1.4,2.7,2.6,6.1,2.6c3.4,0,6.2-1.1,6.2-2.5l0.1-9.4L36.7,26.2z"/>
		<path class="st3" d="M36.6,28.8c0,1.4,2.7,2.6,6.1,2.6c3.4,0,6.2-1.1,6.2-2.5"/>
	</g>
	<path class="st4" d="M36.8,15.7l-0.2,14.4c0,1.4,2.7,2.6,6.1,2.6s6.2-1.1,6.2-2.5l0.2-14.4L36.8,15.7z"/>
	<path class="st3" d="M36.7,24.9c0,1.4,2.7,2.6,6.1,2.6c3.4,0,6.2-1.1,6.2-2.5"/>
	<path class="st3" d="M36.7,19.5c0,1.4,2.7,2.6,6.1,2.6c3.4,0,6.2-1.1,6.2-2.5"/>
	
		<ellipse transform="matrix(1.204732e-02 -0.9999 0.9999 1.204732e-02 28.0032 57.2252)" class="st5" cx="43" cy="14.4" rx="2.6" ry="6.2"/>
</g>
</svg>
