<?xml version="1.0" encoding="UTF-8"?>
<svg width="74px" height="65px" viewBox="0 0 74 65" version="1.1" xmlns="http://www.w3.org/2000/svg" xmlns:xlink="http://www.w3.org/1999/xlink">
    <!-- Generator: sketchtool 49.2 (51160) - http://www.bohemiancoding.com/sketch -->
    <title>6F8937AF-FF9B-4B05-A4D5-14BA58F329CF</title>
    <desc>Created with sketchtool.</desc>
    <defs></defs>
    <g id="symbols" stroke="none" stroke-width="1" fill="none" fill-rule="evenodd">
        <g id="P/IMG/P2P/chart08">
            <g id="Group-7" transform="translate(0.000000, 3.000000)">
                <g id="Group" transform="translate(0.500000, 47.000000)" stroke="#222222" stroke-width="1.5">
                    <path d="M5.53462092,10.0309029 L3.67014552,11.0111156 C3.18130093,11.2681164 2.57667378,11.0801699 2.31967297,10.5913253 C2.2173339,10.3966648 2.18201922,10.1736968 2.21919607,9.95693912 L2.57527918,7.88081525 C2.63091712,7.55642119 2.52336864,7.22542099 2.28768255,6.99568383 L0.779290267,5.52536475 C0.383806689,5.13986353 0.375714383,4.50675027 0.761215595,4.11126669 C0.914724199,3.95378306 1.11586661,3.85129588 1.33350364,3.81967137 L3.41805051,3.51676898 C3.74376067,3.46944052 4.02532626,3.26487115 4.17098827,2.96972767 L5.10322597,1.08080778 C5.34764826,0.585554119 5.9472741,0.38221512 6.44252776,0.626637413 C6.63974036,0.723967653 6.79936788,0.883595174 6.89669812,1.08080778 L7.82893582,2.96972767 C7.97459783,3.26487115 8.25616342,3.46944052 8.58187358,3.51676898 L10.6664204,3.81967137 C11.2129653,3.89908898 11.5916468,4.40653184 11.5122291,4.9530767 C11.4806046,5.17071373 11.3781175,5.37185614 11.2206338,5.52536475 L9.71224154,6.99568383 C9.47655545,7.22542099 9.36900697,7.55642119 9.4246449,7.88081525 L9.78072802,9.95693912 C9.87408903,10.5012756 9.5085012,11.0182315 8.96416476,11.1115925 C8.74740713,11.1487693 8.52443905,11.1134547 8.32977857,11.0111156 L6.46530317,10.0309029 C6.17397915,9.87774478 5.82594494,9.87774478 5.53462092,10.0309029 Z" id="Star" fill="#FFDB15"></path>
                    <path d="M20.7846209,10.0309029 L18.9201455,11.0111156 C18.4313009,11.2681164 17.8266738,11.0801699 17.569673,10.5913253 C17.4673339,10.3966648 17.4320192,10.1736968 17.4691961,9.95693912 L17.8252792,7.88081525 C17.8809171,7.55642119 17.7733686,7.22542099 17.5376825,6.99568383 L16.0292903,5.52536475 C15.6338067,5.13986353 15.6257144,4.50675027 16.0112156,4.11126669 C16.1647242,3.95378306 16.3658666,3.85129588 16.5835036,3.81967137 L18.6680505,3.51676898 C18.9937607,3.46944052 19.2753263,3.26487115 19.4209883,2.96972767 L20.353226,1.08080778 C20.5976483,0.585554119 21.1972741,0.38221512 21.6925278,0.626637413 C21.8897404,0.723967653 22.0493679,0.883595174 22.1466981,1.08080778 L23.0789358,2.96972767 C23.2245978,3.26487115 23.5061634,3.46944052 23.8318736,3.51676898 L25.9164204,3.81967137 C26.4629653,3.89908898 26.8416468,4.40653184 26.7622291,4.9530767 C26.7306046,5.17071373 26.6281175,5.37185614 26.4706338,5.52536475 L24.9622415,6.99568383 C24.7265555,7.22542099 24.619007,7.55642119 24.6746449,7.88081525 L25.030728,9.95693912 C25.124089,10.5012756 24.7585012,11.0182315 24.2141648,11.1115925 C23.9974071,11.1487693 23.774439,11.1134547 23.5797786,11.0111156 L21.7153032,10.0309029 C21.4239791,9.87774478 21.0759449,9.87774478 20.7846209,10.0309029 Z" id="Star" fill="#FFDB15"></path>
                    <path d="M36.0346209,10.0309029 L34.1701455,11.0111156 C33.6813009,11.2681164 33.0766738,11.0801699 32.819673,10.5913253 C32.7173339,10.3966648 32.6820192,10.1736968 32.7191961,9.95693912 L33.0752792,7.88081525 C33.1309171,7.55642119 33.0233686,7.22542099 32.7876825,6.99568383 L31.2792903,5.52536475 C30.8838067,5.13986353 30.8757144,4.50675027 31.2612156,4.11126669 C31.4147242,3.95378306 31.6158666,3.85129588 31.8335036,3.81967137 L33.9180505,3.51676898 C34.2437607,3.46944052 34.5253263,3.26487115 34.6709883,2.96972767 L35.603226,1.08080778 C35.8476483,0.585554119 36.4472741,0.38221512 36.9425278,0.626637413 C37.1397404,0.723967653 37.2993679,0.883595174 37.3966981,1.08080778 L38.3289358,2.96972767 C38.4745978,3.26487115 38.7561634,3.46944052 39.0818736,3.51676898 L41.1664204,3.81967137 C41.7129653,3.89908898 42.0916468,4.40653184 42.0122291,4.9530767 C41.9806046,5.17071373 41.8781175,5.37185614 41.7206338,5.52536475 L40.2122415,6.99568383 C39.9765555,7.22542099 39.869007,7.55642119 39.9246449,7.88081525 L40.280728,9.95693912 C40.374089,10.5012756 40.0085012,11.0182315 39.4641648,11.1115925 C39.2474071,11.1487693 39.024439,11.1134547 38.8297786,11.0111156 L36.9653032,10.0309029 C36.6739791,9.87774478 36.3259449,9.87774478 36.0346209,10.0309029 Z" id="Star" fill="#FFDB15"></path>
                    <path d="M51.2846209,10.0309029 L49.4201455,11.0111156 C48.9313009,11.2681164 48.3266738,11.0801699 48.069673,10.5913253 C47.9673339,10.3966648 47.9320192,10.1736968 47.9691961,9.95693912 L48.3252792,7.88081525 C48.3809171,7.55642119 48.2733686,7.22542099 48.0376825,6.99568383 L46.5292903,5.52536475 C46.1338067,5.13986353 46.1257144,4.50675027 46.5112156,4.11126669 C46.6647242,3.95378306 46.8658666,3.85129588 47.0835036,3.81967137 L49.1680505,3.51676898 C49.4937607,3.46944052 49.7753263,3.26487115 49.9209883,2.96972767 L50.853226,1.08080778 C51.0976483,0.585554119 51.6972741,0.38221512 52.1925278,0.626637413 C52.3897404,0.723967653 52.5493679,0.883595174 52.6466981,1.08080778 L53.5789358,2.96972767 C53.7245978,3.26487115 54.0061634,3.46944052 54.3318736,3.51676898 L56.4164204,3.81967137 C56.9629653,3.89908898 57.3416468,4.40653184 57.2622291,4.9530767 C57.2306046,5.17071373 57.1281175,5.37185614 56.9706338,5.52536475 L55.4622415,6.99568383 C55.2265555,7.22542099 55.119007,7.55642119 55.1746449,7.88081525 L55.530728,9.95693912 C55.624089,10.5012756 55.2585012,11.0182315 54.7141648,11.1115925 C54.4974071,11.1487693 54.274439,11.1134547 54.0797786,11.0111156 L52.2153032,10.0309029 C51.9239791,9.87774478 51.5759449,9.87774478 51.2846209,10.0309029 Z" id="Star" fill="#FFFFFF"></path>
                    <path d="M66.5346209,10.0309029 L64.6701455,11.0111156 C64.1813009,11.2681164 63.5766738,11.0801699 63.319673,10.5913253 C63.2173339,10.3966648 63.1820192,10.1736968 63.2191961,9.95693912 L63.5752792,7.88081525 C63.6309171,7.55642119 63.5233686,7.22542099 63.2876825,6.99568383 L61.7792903,5.52536475 C61.3838067,5.13986353 61.3757144,4.50675027 61.7612156,4.11126669 C61.9147242,3.95378306 62.1158666,3.85129588 62.3335036,3.81967137 L64.4180505,3.51676898 C64.7437607,3.46944052 65.0253263,3.26487115 65.1709883,2.96972767 L66.103226,1.08080778 C66.3476483,0.585554119 66.9472741,0.38221512 67.4425278,0.626637413 C67.6397404,0.723967653 67.7993679,0.883595174 67.8966981,1.08080778 L68.8289358,2.96972767 C68.9745978,3.26487115 69.2561634,3.46944052 69.5818736,3.51676898 L71.6664204,3.81967137 C72.2129653,3.89908898 72.5916468,4.40653184 72.5122291,4.9530767 C72.4806046,5.17071373 72.3781175,5.37185614 72.2206338,5.52536475 L70.7122415,6.99568383 C70.4765555,7.22542099 70.369007,7.55642119 70.4246449,7.88081525 L70.780728,9.95693912 C70.874089,10.5012756 70.5085012,11.0182315 69.9641648,11.1115925 C69.7474071,11.1487693 69.524439,11.1134547 69.3297786,11.0111156 L67.4653032,10.0309029 C67.1739791,9.87774478 66.8259449,9.87774478 66.5346209,10.0309029 Z" id="Star" fill="#FFFFFF"></path>
                </g>
                <g id="Group-11" transform="translate(21.000000, 0.000000)">
                    <path d="M29,6.375 L37,14.375 L41,10.375 C41,10.375 43,8.375 40,5.375 C37,2.375 34,1.375 33,2.375 L29,6.375 Z" id="Fill-1" fill="#8848FF"></path>
                    <path d="M5.64599838,28.8245261 L1.63767125,40.8495075 C1.40336611,41.5524229 1.44798294,41.5964986 2.15049252,41.3623288 L14.1754739,37.3540016 L39.8782806,11.651195 C41.6725131,9.85696244 41.6638015,6.92825867 39.8524323,5.11688945 L37.8831106,3.14756768 C36.0659117,1.33036882 33.147776,1.32274847 31.348805,3.12171942 L5.64599838,28.8245261 Z" id="Line-41" stroke="#222222" stroke-width="2"></path>
                    <path d="M27.9883106,10.2450002 L37.8878055,10.2450002" id="Line-40" stroke="#222222" stroke-width="2" stroke-linecap="square" transform="translate(32.625558, 9.932500) rotate(-315.000000) translate(-32.625558, -9.932500) "></path>
                    <path d="M21.4839996,6.42687708 L21.4839996,36.1253619" id="Line-40" stroke="#222222" stroke-width="2" stroke-linecap="square" transform="translate(21.221752, 21.407374) rotate(-315.000000) translate(-21.221752, -21.407374) "></path>
                    <path d="M5.39382555,32.7621088 L15.2933205,32.7621088" id="Line-39" stroke="#222222" stroke-width="2" stroke-linecap="square" transform="translate(10.738180, 32.819878) rotate(-315.000000) translate(-10.738180, -32.819878) "></path>
                </g>
            </g>
        </g>
    </g>
</svg>