<?xml version="1.0" encoding="utf-8"?>
<!-- Generator: Adobe Illustrator 22.0.1, SVG Export Plug-In . SVG Version: 6.00 Build 0)  -->
<svg version="1.1" id="Layer_1" xmlns="http://www.w3.org/2000/svg" xmlns:xlink="http://www.w3.org/1999/xlink" x="0px" y="0px"
	 viewBox="0 0 18.2 17.1" style="enable-background:new 0 0 18.2 17.1;" xml:space="preserve">
<style type="text/css">
	.st0{fill:none;stroke:#222222;stroke-width:1.5;stroke-linecap:round;stroke-linejoin:round;stroke-miterlimit:10;}
	.st1{fill:none;stroke:#222222;stroke-linecap:round;stroke-linejoin:round;stroke-miterlimit:10;}
	.st2{fill:#222222;}
</style>
<title>96D6D83A-B8CD-4C61-9437-129C06BF62B7</title>
<desc>Created with sketchtool.</desc>
<g>
	<line class="st0" x1="4.8" y1="3.9" x2="13.8" y2="3.9"/>
	<line class="st0" x1="6.8" y1="1.4" x2="11.8" y2="1.4"/>
	<g>
		<polyline class="st1" points="5.8,9.4 8.5,11.5 9.9,10 12.6,12.2 		"/>
		<polyline class="st1" points="12.8,10.4 12.8,12.4 10.6,12.4 		"/>
	</g>
	<g>
		<g>
			<path class="st2" d="M15.8,7.1v7.5h-13V7.1H15.8 M16.2,5.6h-14c-0.6,0-1,0.4-1,1v8.5c0,0.6,0.4,1,1,1h14c0.5,0,1-0.4,1-1V6.6
				C17.2,6.1,16.8,5.6,16.2,5.6L16.2,5.6z"/>
		</g>
		<path class="st2" d="M3,8.1H2.5c-0.5,0-1-0.4-1-1V6.6c0-0.5,0.4-1,1-1H3c0.6,0,1,0.5,1,1v0.5C4,7.7,3.6,8.1,3,8.1z"/>
		<path class="st2" d="M16,8.1h-0.5c-0.6,0-1-0.4-1-1V6.6c0-0.5,0.4-1,1-1H16c0.6,0,1,0.5,1,1v0.5C17,7.7,16.6,8.1,16,8.1z"/>
		<path class="st2" d="M3,16.1H2.5c-0.5,0-1-0.5-1-1l0-0.6c0-0.6,0.4-1,1-1H3c0.5,0,1,0.4,1,1v0.6C4,15.7,3.6,16.1,3,16.1z"/>
		<path class="st2" d="M16,16.1h-0.5c-0.6,0-1-0.5-1-1v-0.6c0-0.6,0.4-1,1-1H16c0.6,0,1,0.4,1,1v0.6C17,15.7,16.6,16.1,16,16.1z"/>
	</g>
</g>
</svg>
