<?xml version="1.0" encoding="UTF-8"?>
<svg width="100px" height="64px" viewBox="0 0 100 64" version="1.1" xmlns="http://www.w3.org/2000/svg" xmlns:xlink="http://www.w3.org/1999/xlink">
    <!-- Generator: sketchtool 49.2 (51160) - http://www.bohemiancoding.com/sketch -->
    <title>6818D813-1F51-4453-B856-F3DC6041EC9D</title>
    <desc>Created with sketchtool.</desc>
    <defs>
        <path d="M3,0.966842163 L49.0239258,0.975509155 L49.0192768,22.9755092 C49.0192768,25.7351184 46.7835317,27.9729423 44.0239236,27.975507 L8.05175108,28.0086648 C5.29224962,28.0112294 3.05239323,25.7777311 3.04711344,23.0182335 L3,0.966842163 Z" id="path-1"></path>
        <path d="M3.23020365,26 L50.537896,26 L53.3433552,35.1177425 C53.8306126,36.701329 52.9418622,38.3800796 51.3582757,38.867337 C51.0724459,38.9552847 50.7750724,39 50.4760181,39 L3.29208146,39 C1.63522721,39 0.29208146,37.6568542 0.29208146,36 C0.29208146,35.7009457 0.336796806,35.4035722 0.424744434,35.1177425 L3.23020365,26 Z" id="path-2"></path>
        <path d="M0,19.4285714 L0,13 L22,13 L22,19.4285714 C22,21.401017 17.0751322,23 11,23 C4.92486775,23 0,21.401017 0,19.4285714 Z" id="path-3"></path>
        <path d="M0,14.4285714 L0,8 L22,8 L22,14.4285714 C22,16.401017 17.0751322,18 11,18 C4.92486775,18 0,16.401017 0,14.4285714 Z" id="path-4"></path>
        <path d="M0,9.42857143 L0,3 L22,3 L22,9.42857143 C22,11.401017 17.0751322,13 11,13 C4.92486775,13 0,11.401017 0,9.42857143 Z" id="path-5"></path>
    </defs>
    <g id="symbols" stroke="none" stroke-width="1" fill="none" fill-rule="evenodd">
        <g id="P/icon/investment-risk">
            <g id="Group-2" transform="translate(9.000000, 9.000000)">
                <g id="통장" transform="translate(13.000000, 0.000000)">
                    <g id="Rectangle-2" transform="translate(26.011963, 14.487755) rotate(-180.000000) translate(-26.011963, -14.487755) ">
                        <use fill="#FFFFFF" fill-rule="evenodd" xlink:href="#path-1"></use>
                        <path stroke="#222222" stroke-width="2" d="M4.00213921,1.9670309 L4.04711161,23.0163202 C4.05133544,25.2239183 5.84322055,27.0107169 8.05082932,27.0086652 L44.0229943,26.9755074 C46.2306807,26.9734557 48.0192768,25.1831965 48.0192769,22.9752978 L48.0237145,1.97532082 L4.00213921,1.9670309 Z"></path>
                    </g>
                    <rect id="Rectangle-3" fill="#D8D8D8" x="9" y="8" width="14" height="4"></rect>
                    <rect id="Rectangle-3-Copy" fill="#D8D8D8" x="9" y="14" width="22" height="2"></rect>
                    <g id="Rectangle-2-Copy" transform="translate(26.884449, 32.500000) rotate(-360.000000) translate(-26.884449, -32.500000) ">
                        <use fill="#EEEEEE" fill-rule="evenodd" xlink:href="#path-2"></use>
                        <path stroke="#222222" stroke-width="2" d="M3.96877831,27 L1.38052344,35.4118283 C1.32189169,35.6023815 1.29208146,35.8006305 1.29208146,36 C1.29208146,37.1045695 2.18751196,38 3.29208146,38 L50.4760181,38 C50.6753877,38 50.8736367,37.9701898 51.0641898,37.911558 C52.1199142,37.5867198 52.7124144,36.4675526 52.3875762,35.4118283 L49.7993213,27 L3.96877831,27 Z"></path>
                    </g>
                    <polygon id="Path-2" fill="#FFFFFF" points="13.2873563 28 22.375 28.5 21.25 37 11 37"></polygon>
                    <polygon id="Path-2-Copy" fill="#FFFFFF" points="32 28 40.25 28 42.5 37 32.75 37"></polygon>
                </g>
                <g id="동전-copy" transform="translate(0.000000, 21.000000)">
                    <g id="Combined-Shape-Copy-3">
                        <use fill="#FFFFFF" fill-rule="evenodd" xlink:href="#path-3"></use>
                        <path stroke="#222222" stroke-width="2" d="M21,14 L1,14 L1,19.4285714 C1,19.8013871 1.85746194,20.4595909 3.53063216,21.002828 C5.47314843,21.6335151 8.14186879,22 11,22 C13.8581312,22 16.5268516,21.6335151 18.4693678,21.002828 C20.1425381,20.4595909 21,19.8013871 21,19.4285714 L21,14 Z"></path>
                    </g>
                    <g id="Combined-Shape">
                        <use fill="#FFFFFF" fill-rule="evenodd" xlink:href="#path-4"></use>
                        <path stroke="#222222" stroke-width="2" d="M21,9 L1,9 L1,14.4285714 C1,14.8013871 1.85746194,15.4595909 3.53063216,16.002828 C5.47314843,16.6335151 8.14186879,17 11,17 C13.8581312,17 16.5268516,16.6335151 18.4693678,16.002828 C20.1425381,15.4595909 21,14.8013871 21,14.4285714 L21,9 Z"></path>
                    </g>
                    <g id="Combined-Shape">
                        <use fill="#FFFFFF" fill-rule="evenodd" xlink:href="#path-5"></use>
                        <path stroke="#222222" stroke-width="2" d="M21,4 L1,4 L1,9.42857143 C1,9.8013871 1.85746194,10.4595909 3.53063216,11.002828 C5.47314843,11.6335151 8.14186879,12 11,12 C13.8581312,12 16.5268516,11.6335151 18.4693678,11.002828 C20.1425381,10.4595909 21,9.8013871 21,9.42857143 L21,4 Z"></path>
                    </g>
                    <ellipse id="Oval-3" stroke="#222222" stroke-width="2" fill="#FFFFFF" cx="11.5" cy="3.5" rx="10.5" ry="3.5"></ellipse>
                </g>
                <g id="coin" transform="translate(50.000000, 12.000000)">
                    <g id="Group" transform="translate(0.524874, 0.967391)">
                        <ellipse id="Oval" stroke="#000000" stroke-width="2" fill="#FFDB15" fill-rule="nonzero" stroke-linecap="round" stroke-linejoin="round" cx="15.5585805" cy="15.4076087" rx="15.5585805" ry="15.4076087"></ellipse>
                        <path d="M21.6846563,13.4589228 L21.6846563,14.9349546 L20.1809713,14.9349546 L18.9938516,20.0945348 L16.9889384,20.0945348 L15.8545796,14.9349546 L15.0104056,14.9349546 L13.8628565,20.0945348 L11.8579433,20.0945348 L10.6444432,14.9349546 L9.21989953,14.9349546 L9.21989953,13.4589228 L10.3146877,13.4719851 L9.60241587,10.2717391 L11.2643834,10.2717391 L11.963465,13.4719851 L13.7441446,13.4719851 L14.4300359,10.2717391 L16.3953785,10.2717391 L17.1076504,13.4719851 L18.8883299,13.4719851 L19.5742213,10.2717391 L21.2625693,10.2717391 L20.5502974,13.4719851 L21.6846563,13.4589228 Z M15.6039654,13.4719851 L15.3665415,12.5576291 L15.1818784,13.4719851 L15.6039654,13.4719851 Z M18.5717646,14.9349546 L17.3978352,14.9349546 L17.9782048,17.4690269 L18.5717646,14.9349546 Z M13.4407695,14.9349546 L12.2668401,14.9349546 L12.8472097,17.4690269 L13.4407695,14.9349546 Z" id="\-copy" fill="#000000"></path>
                    </g>
                </g>
            </g>
        </g>
    </g>
</svg>