<svg xmlns="http://www.w3.org/2000/svg" xmlns:xlink="http://www.w3.org/1999/xlink" width="70" height="70" viewBox="0 0 70 70">
    <defs>
        <path id="a" d="M17.28 0h33.764a4 4 0 0 1 3.972 4.476L52.128 28.56a4 4 0 0 1-3.972 3.523H12.464A4 4 0 0 1 8.542 27.3l4.816-24.083A4 4 0 0 1 17.28 0z"/>
        <path id="b" d="M7.008 0H45.79a4 4 0 0 1 3.982 4.381l-2.585 27A4 4 0 0 1 43.205 35H4.423A4 4 0 0 1 .44 30.619l2.585-27A4 4 0 0 1 7.008 0z"/>
        <circle id="c" cx="14" cy="14" r="14"/>
    </defs>
    <g fill="none" fill-rule="evenodd">
        <g transform="translate(4 13)">
            <g transform="matrix(-1 0 0 1 63.664 0)">
                <use fill="#C8C8C8" xlink:href="#a"/>
                <path stroke="#000" stroke-width="2" d="M17.28 1a3 3 0 0 0-2.941 2.412L9.522 27.495a3 3 0 0 0 2.942 3.588h35.692a3 3 0 0 0 2.979-2.642l2.888-24.084A3 3 0 0 0 51.044 1H17.28z"/>
            </g>
            <use fill="#FFF" xlink:href="#b"/>
            <path stroke="#000" stroke-width="2" d="M7.008 1A3 3 0 0 0 4.02 3.714l-2.585 27A3 3 0 0 0 4.423 34h38.782a3 3 0 0 0 2.986-2.714l2.585-27A3 3 0 0 0 45.79 1H7.008z"/>
            <ellipse cx="35.5" cy="7.292" fill="#000" rx="1.5" ry="1.458"/>
            <ellipse cx="40.5" cy="7.292" fill="#000" rx="1.5" ry="1.458"/>
            <path fill="#731AED" d="M8 22.361h26v5.833H8z"/>
        </g>
        <g transform="translate(38 30)">
            <use fill="#FFDB15" xlink:href="#c"/>
            <circle cx="14" cy="14" r="13" stroke="#222" stroke-width="2"/>
        </g>
        <path fill="#FFF" d="M46 45.557l4.966 4.943 7.055-11.456-2.12-.016-5.064 8.42a3839.93 3839.93 0 0 0-3.785-3.534c0 .002-.35.55-1.052 1.643z"/>
    </g>
</svg>
