<svg xmlns="http://www.w3.org/2000/svg" width="34" height="38" viewBox="0 0 34 38">
    <g fill="none" fill-rule="evenodd">
        <path fill="#FFF" d="M7 35.311h24.138V6H7z"/>
        <path fill="#FFF" d="M2 31.311h24.138V2H2z"/>
        <g stroke="#222" stroke-linecap="round" stroke-linejoin="round" stroke-width="2">
            <path d="M2 31.311h24.138V2H2z"/>
            <path d="M27.138 5.717H32V36.2H6.897v-4.89"/>
        </g>
        <path stroke="#222" stroke-linecap="square" stroke-linejoin="round" stroke-width="1.5" d="M7 8.886h14M7 12.373h14M7 15.86h6.667"/>
        <path stroke="#8848FF" stroke-linecap="round" stroke-linejoin="round" stroke-width="1.3" d="M6.65 25.454l3.582-4.299 4.015 2.865 6.447-6.447"/>
        <path fill="#8848FF" d="M11.686 20.797a1.433 1.433 0 1 1-2.866 0 1.433 1.433 0 0 1 2.866 0M15.749 23.797a1.433 1.433 0 1 1-2.866 0 1.433 1.433 0 0 1 2.866 0M8.356 24.797a1.433 1.433 0 1 1-2.866 0 1.433 1.433 0 0 1 2.866 0"/>
        <path stroke="#8848FF" stroke-linecap="square" stroke-width="1.3" d="M18.537 17.265l2.436-.027.027 2.435"/>
    </g>
</svg>
