<?xml version="1.0" encoding="utf-8"?>
<!-- Generator: Adobe Illustrator 22.0.1, SVG Export Plug-In . SVG Version: 6.00 Build 0)  -->
<svg version="1.1" id="Layer_1" xmlns="http://www.w3.org/2000/svg" xmlns:xlink="http://www.w3.org/1999/xlink" x="0px" y="0px"
	 viewBox="0 0 18.8 18.7" style="enable-background:new 0 0 18.8 18.7;" xml:space="preserve">
<style type="text/css">
	.st0{fill:none;stroke:#222222;stroke-width:1.5;stroke-linecap:round;stroke-linejoin:round;stroke-miterlimit:10;}
	.st1{fill:none;stroke:#222222;stroke-linecap:round;stroke-linejoin:round;stroke-miterlimit:10;}
	.st2{fill:#222222;}
</style>
<title>CBA6F83F-1DE6-4707-ADE8-4E039F2FC92D</title>
<desc>Created with sketchtool.</desc>
<g>
	<polyline class="st0" points="16,10.6 16,15.2 4,15.2 4,1.2 16,1.2 16,2.8 	"/>
	<polyline class="st0" points="2,12.2 2,17.2 7,17.2 	"/>
	<g>
		<line class="st1" x1="8" y1="5.7" x2="12" y2="5.7"/>
		<line class="st1" x1="8" y1="8.2" x2="10" y2="8.2"/>
		<line class="st1" x1="8" y1="10.7" x2="8.5" y2="10.7"/>
	</g>
	<g>
		<path class="st2" d="M15.4,5.5l1.4,1.4l-4.4,4.4H11V9.8L15.4,5.5z M18,5.5c0,0.1,0,0.2-0.1,0.2l-0.6,0.6l-1.4-1.4l0.6-0.6
			c0.1-0.1,0.2-0.1,0.2-0.1c0.1,0,0.2,0,0.2,0.1l0.9,0.9C18,5.3,18,5.4,18,5.5z"/>
	</g>
</g>
</svg>
