<?xml version="1.0" encoding="utf-8"?>
<!-- Generator: Adobe Illustrator 22.0.1, SVG Export Plug-In . SVG Version: 6.00 Build 0)  -->
<svg version="1.1" id="Layer_1" xmlns="http://www.w3.org/2000/svg" xmlns:xlink="http://www.w3.org/1999/xlink" x="0px" y="0px"
	 viewBox="0 0 18 17.4" style="enable-background:new 0 0 18 17.4;" xml:space="preserve">
<style type="text/css">
	.st0{fill:none;stroke:#222222;stroke-width:1.5;stroke-linecap:round;stroke-linejoin:round;stroke-miterlimit:10;}
	.st1{fill:#222222;}
	.st2{fill:none;stroke:#222222;stroke-width:1.5;stroke-miterlimit:10;}
</style>
<title>D8F8FE7E-AAF4-4B6F-8CB6-D6E908F3DDBA</title>
<desc>Created with sketchtool.</desc>
<g>
	<path class="st0" d="M1.8,7l1-3.8c0-1,0.9-1.9,1.9-1.9h8.6c1.1,0,1.9,0.9,1.9,1.9l1,3.8"/>
	<path class="st0" d="M15.5,14.1h-13c-0.8,0-1.5-0.7-1.5-1.5v-4c0-0.8,0.7-1.5,1.5-1.5h13c0.8,0,1.5,0.7,1.5,1.5v4
		C17,13.4,16.3,14.1,15.5,14.1z"/>
	<circle class="st1" cx="4.8" cy="10.6" r="1"/>
	<circle class="st1" cx="13.8" cy="10.6" r="1"/>
	<path class="st2" d="M4.7,14.1v1.3c0,0.7-0.6,1.2-1.2,1.2h0c-0.7,0-1.2-0.6-1.2-1.2v-1.3"/>
	<path class="st2" d="M15.7,14.1v1.3c0,0.7-0.6,1.2-1.2,1.2h0c-0.7,0-1.2-0.6-1.2-1.2v-1.3"/>
</g>
</svg>
