<?xml version="1.0" encoding="UTF-8"?>
<svg width="34px" height="34px" viewBox="0 0 34 34" version="1.1" xmlns="http://www.w3.org/2000/svg" xmlns:xlink="http://www.w3.org/1999/xlink">
    <!-- Generator: sketchtool 49.3 (51167) - http://www.bohemiancoding.com/sketch -->
    <title>8AAA72B5-EE2E-49DF-8CDD-2816188617E0</title>
    <desc>Created with sketchtool.</desc>
    <defs></defs>
    <g id="symbols" stroke="none" stroke-width="1" fill="none" fill-rule="evenodd">
        <g id="P/IMG/icon/warning">
            <g id="Group-2" transform="translate(-3.000000, 0.000000)">
                <rect id="Rectangle" fill-opacity="0" fill="#D8D8D8" x="3" y="0" width="34" height="34"></rect>
                <path d="M9.23837691,8.78996635 L31.0498626,14.2180573 C32.5811137,14.5991304 33.5135171,16.1493754 33.1324441,17.6806265 C33.0071363,18.1841458 32.7470755,18.644036 32.3801739,19.0109377 L16.0250996,35.3660119 C14.9093159,36.4817956 13.1002731,36.4817956 11.9844895,35.3660119 C11.6186361,35.0001586 11.358994,34.5418265 11.2332771,34.0399375 L5.77686557,12.2567723 C5.3934526,10.7261054 6.32348562,9.17443714 7.85415246,8.79102417 C8.30849887,8.67721605 8.7838571,8.67685279 9.23837691,8.78996635 Z" id="Rectangle-24" fill="#AA96F2" fill-rule="nonzero" transform="translate(19.454124, 22.454124) rotate(-315.000000) translate(-19.454124, -22.454124) "></path>
                <path d="M21.0517904,12.0625198 L21.0517904,17.339785 C21.0517904,17.9056484 21.0179622,18.4668904 20.9503046,19.0235278 C20.882647,19.5801652 20.7934633,20.1475578 20.6827509,20.7257226 L18.7452934,20.7257226 C18.634581,20.1475578 18.5453973,19.5801652 18.4777397,19.0235278 C18.4100822,18.4668904 18.3762539,17.9056484 18.3762539,17.339785 L18.3762539,12.0625198 L21.0517904,12.0625198 Z M18.0625703,24.0563044 C18.0625703,23.8348795 18.1040868,23.6288345 18.1871211,23.4381632 C18.2701554,23.2474918 18.3839415,23.0814256 18.5284827,22.9399598 C18.6730239,22.7984939 18.843703,22.6862455 19.040525,22.6032112 C19.2373471,22.5201769 19.452618,22.4786604 19.6863442,22.4786604 C19.9139197,22.4786604 20.1261153,22.5201769 20.3229374,22.6032112 C20.5197594,22.6862455 20.6919762,22.7984939 20.8395927,22.9399598 C20.9872093,23.0814256 21.102533,23.2474918 21.1855673,23.4381632 C21.2686016,23.6288345 21.3101181,23.8348795 21.3101181,24.0563044 C21.3101181,24.2777292 21.2686016,24.4853118 21.1855673,24.6790586 C21.102533,24.8728053 20.9872093,25.0404091 20.8395927,25.1818749 C20.6919762,25.3233408 20.5197594,25.4340515 20.3229374,25.5140105 C20.1261153,25.5939694 19.9139197,25.6339483 19.6863442,25.6339483 C19.452618,25.6339483 19.2373471,25.5939694 19.040525,25.5140105 C18.843703,25.4340515 18.6730239,25.3233408 18.5284827,25.1818749 C18.3839415,25.0404091 18.2701554,24.8728053 18.1871211,24.6790586 C18.1040868,24.4853118 18.0625703,24.2777292 18.0625703,24.0563044 Z" id="!" fill="#FFFFFF"></path>
            </g>
        </g>
    </g>
</svg>