<?xml version="1.0" encoding="UTF-8"?>
<svg width="74px" height="65px" viewBox="0 0 74 65" version="1.1" xmlns="http://www.w3.org/2000/svg" xmlns:xlink="http://www.w3.org/1999/xlink">
    <!-- Generator: sketchtool 49.2 (51160) - http://www.bohemiancoding.com/sketch -->
    <title>8C998378-0E9A-4FE2-A82F-429C0F1503F5</title>
    <desc>Created with sketchtool.</desc>
    <defs></defs>
    <g id="symbols" stroke="none" stroke-width="1" fill="none" fill-rule="evenodd">
        <g id="P/IMG/P2P/chart05">
            <g id="Page-1" transform="translate(2.000000, 2.000000)">
                <polygon id="Fill-1" fill="#EEEEEE" points="64.4547636 12.5145091 0.0911272727 12.5145091 0.0911272727 51.7283273 26.1638545 51.7283273 38.3820364 51.7283273 64.4547636 51.7283273"></polygon>
                <g id="Group-26" transform="translate(0.000000, 0.349418)">
                    <polygon id="Stroke-2" stroke="#222222" stroke-width="2" stroke-linecap="round" stroke-linejoin="round" points="64.4547636 12.1650909 0.0911272727 12.1650909 0.0911272727 51.3789091 26.1638545 51.3789091 38.3820364 51.3789091 64.4547636 51.3789091"></polygon>
                    <path d="M37.1430909,45.5656727 L59.546,45.5656727 L59.546,7.38385455 L37.1430909,7.38385455 C34.4638182,7.38385455 32.2732727,9.8384 32.2732727,12.8384 L32.2732727,47.7474909 C32.2732727,47.7474909 32.7598182,45.5656727 37.1430909,45.5656727" id="Fill-4" fill="#FFFFFF"></path>
                    <path d="M37.1430909,45.5656727 L59.546,45.5656727 L59.546,7.38385455 L37.1430909,7.38385455 C34.4638182,7.38385455 32.2732727,9.8384 32.2732727,12.8384 L32.2732727,47.7474909 C32.2732727,47.7474909 32.7598182,45.5656727 37.1430909,45.5656727 Z" id="Stroke-6" stroke="#222222" stroke-width="2" stroke-linecap="round" stroke-linejoin="round"></path>
                    <path d="M27.4026909,45.5656727 L4.99978182,45.5656727 L4.99978182,7.38385455 L27.4026909,7.38385455 C30.0808727,7.38385455 32.2725091,9.8384 32.2725091,12.8384 L32.2725091,47.7474909 C32.2725091,47.7474909 31.7859636,45.5656727 27.4026909,45.5656727" id="Fill-8" fill="#FFFFFF"></path>
                    <path d="M27.4026909,45.5656727 L4.99978182,45.5656727 L4.99978182,7.38385455 L27.4026909,7.38385455 C30.0808727,7.38385455 32.2725091,9.8384 32.2725091,12.8384 L32.2725091,47.7474909 C32.2725091,47.7474909 31.7859636,45.5656727 27.4026909,45.5656727 Z" id="Stroke-10" stroke="#222222" stroke-width="2" stroke-linecap="round" stroke-linejoin="round"></path>
                    <path d="M28.1175636,44.1146545 L9.23065455,39.1062909 L9.25029091,0.831745455 L28.1710182,7.52229091 C30.4313818,8.35247273 32.2772,10.3630182 32.2728364,13.3226545 L32.2204727,47.7473818 C32.2204727,47.7473818 31.8157455,45.4717455 28.1175636,44.1146545" id="Fill-12" fill="#FFFFFF"></path>
                    <path d="M28.1175636,44.1146545 L9.23065455,39.1062909 L9.25029091,0.831745455 L28.1710182,7.52229091 C30.4313818,8.35247273 32.2772,10.3630182 32.2728364,13.3226545 L32.2204727,47.7473818 C32.2204727,47.7473818 31.8157455,45.4717455 28.1175636,44.1146545 Z" id="Stroke-14" stroke="#222222" stroke-width="2" stroke-linecap="round" stroke-linejoin="round"></path>
                    <polygon id="Fill-16" fill="#8848FF" points="54.0909455 18.6196364 50.8182182 16.4378182 47.5454909 18.6196364 47.5454909 7.71054545 54.0909455 7.71054545"></polygon>
                    <polygon id="Stroke-18" stroke="#222222" stroke-width="2" stroke-linecap="round" stroke-linejoin="round" points="54.0909455 18.6196364 50.8182182 16.4378182 47.5454909 18.6196364 47.5454909 7.71054545 54.0909455 7.71054545"></polygon>
                    <polygon id="Fill-20" fill="#D8D8D8" points="37.6367273 26.1650909 54.0003636 26.1650909 54.0003636 23.9832727 37.6367273 23.9832727"></polygon>
                    <polygon id="Fill-22" fill="#D8D8D8" points="37.6367273 31.6196364 54.0003636 31.6196364 54.0003636 29.4378182 37.6367273 29.4378182"></polygon>
                    <polygon id="Fill-23" fill="#D8D8D8" points="37.6367273 37.0741818 54.0003636 37.0741818 54.0003636 34.8923636 37.6367273 34.8923636"></polygon>
                    <polygon id="Fill-24" fill="#FFDB15" points="70.5728364 49.3415636 55.7561091 42.4022909 60.0804727 58.1822909 62.2230182 53.3473818 67.7517455 59.9092 70.9732 57.1950182 65.4444727 50.6332"></polygon>
                    <polygon id="Stroke-25" stroke="#222222" stroke-width="2" stroke-linecap="round" stroke-linejoin="round" points="70.5728364 49.3415636 55.7561091 42.4022909 60.0804727 58.1822909 62.2230182 53.3473818 67.7517455 59.9092 70.9732 57.1950182 65.4444727 50.6332"></polygon>
                </g>
            </g>
        </g>
    </g>
</svg>