<?xml version="1.0" encoding="UTF-8"?>
<svg width="30px" height="30px" viewBox="0 0 30 30" version="1.1" xmlns="http://www.w3.org/2000/svg" xmlns:xlink="http://www.w3.org/1999/xlink">
    <!-- Generator: sketchtool 49.3 (51167) - http://www.bohemiancoding.com/sketch -->
    <title>40563587-05A1-425A-8B41-BBC0BE256A24</title>
    <desc>Created with sketchtool.</desc>
    <defs></defs>
    <g id="total" stroke="none" stroke-width="1" fill="none" fill-rule="evenodd">
        <g id="07-1-e.-MY-투자서비스-이용신청-완료인경우_투자금액없음_[MASV07Z01]" transform="translate(-83.000000, -164.000000)">
            <g id="Group-2" transform="translate(-1.000000, 74.000000)">
                <g id="@요약">
                    <g id="Group-10" transform="translate(1.000000, 0.000000)">
                        <g id="Group-6" transform="translate(20.000000, 68.000000)">
                            <g id="Rectangle-12">
                                <g id="Group-2" transform="translate(64.000000, 23.000000)">
                                    <rect id="Rectangle-130" stroke="#FFFFFF" stroke-width="2" stroke-linecap="round" stroke-linejoin="round" x="0" y="0" width="28" height="28" rx="2"></rect>
                                    <polygon id="Fill-137" fill="#FFFFFF" points="1 8 27 8 27 9 1 9"></polygon>
                                    <polygon id="Fill-142" fill="#FFFFFF" points="7 13 9 13 9 15 7 15"></polygon>
                                    <polygon id="Fill-147" fill="#FFFFFF" points="7 17 9 17 9 19 7 19"></polygon>
                                    <polygon id="Fill-153" fill="#FFFFFF" points="7 21 9 21 9 23 7 23"></polygon>
                                    <polygon id="Fill-142" fill="#FFFFFF" points="11 13 13 13 13 15 11 15"></polygon>
                                    <polygon id="Fill-147" fill="#FFFFFF" points="11 17 13 17 13 19 11 19"></polygon>
                                    <polygon id="Fill-153" fill="#FFFFFF" points="11 21 13 21 13 23 11 23"></polygon>
                                    <polygon id="Fill-142" fill="#FFFFFF" points="15 13 17 13 17 15 15 15"></polygon>
                                    <polygon id="Fill-147" fill="#FFFFFF" points="15 17 17 17 17 19 15 19"></polygon>
                                    <polygon id="Fill-153" fill="#FFFFFF" points="15 21 17 21 17 23 15 23"></polygon>
                                    <polygon id="Fill-142" fill="#FFFFFF" points="19 13 21 13 21 15 19 15"></polygon>
                                    <polygon id="Fill-147" fill="#FFFFFF" points="19 17 21 17 21 19 19 19"></polygon>
                                    <polygon id="Fill-153" fill="#FFFFFF" points="19 21 21 21 21 23 19 23"></polygon>
                                </g>
                            </g>
                        </g>
                    </g>
                </g>
            </g>
        </g>
    </g>
</svg>