<?xml version="1.0" encoding="utf-8"?>
<!-- Generator: Adobe Illustrator 22.0.1, SVG Export Plug-In . SVG Version: 6.00 Build 0)  -->
<svg version="1.1" id="Layer_1" xmlns="http://www.w3.org/2000/svg" xmlns:xlink="http://www.w3.org/1999/xlink" x="0px" y="0px"
	 viewBox="0 0 63 41.8" style="enable-background:new 0 0 63 41.8;" xml:space="preserve">
<style type="text/css">
	.st0{fill:#FFFFFF;stroke:#222222;stroke-width:2;stroke-linecap:round;stroke-linejoin:round;stroke-miterlimit:10;}
	.st1{fill:#8848FF;stroke:#222222;stroke-width:2;stroke-linecap:round;stroke-linejoin:round;stroke-miterlimit:10;}
	.st2{fill:#FFDB15;stroke:#222222;stroke-width:2;stroke-linecap:round;stroke-linejoin:round;stroke-miterlimit:10;}
	.st3{fill:#222222;}
</style>
<title>C5F084CE-1554-4851-B529-948E61A3C414</title>
<desc>Created with sketchtool.</desc>
<g>
	<path class="st0" d="M30.1,36.2c-1.4,1.4-3.8,2.8-7.4,3.5c0.7-2.2,0.3-4.5-1.2-6.9C19,31,17,28.5,15.8,25.4
		C12.3,16.5,16.6,6.5,25.4,3s18.9,0.8,22.5,9.6S47.1,31.5,38.3,35C35.6,36.2,32.8,36.5,30.1,36.2z"/>
</g>
<g>
	<path class="st1" d="M52,38c-0.6,0.3-1.6,0.4-2.8,0.2c0.5-0.6,0.7-1.4,0.5-2.4c-0.6-0.9-0.9-2-0.9-3.1c0-3.3,2.7-6,6-6s6,2.7,6,6
		s-2.7,6-6,6C53.8,38.8,52.8,38.5,52,38z"/>
</g>
<g>
	<path class="st2" d="M9,38.2c0.5,0.5,1.4,0.9,2.6,1c-0.3-0.8-0.2-1.6,0.3-2.4c0.8-0.7,1.4-1.6,1.8-2.7c1-3.2-0.7-6.5-3.9-7.5
		s-6.5,0.7-7.5,3.9S3,37,6.2,38C7.1,38.3,8.1,38.5,9,38.2z"/>
</g>
<g>
	<path class="st3" d="M24.6,20.3v2.5h-1.7v-7.5h2.7c0.5,0,1,0.1,1.4,0.2c0.4,0.1,0.7,0.3,0.9,0.5c0.2,0.2,0.4,0.5,0.5,0.8
		c0.1,0.3,0.2,0.6,0.2,1c0,0.4-0.1,0.7-0.2,1c-0.1,0.3-0.3,0.6-0.6,0.8c-0.2,0.2-0.6,0.4-0.9,0.5s-0.8,0.2-1.4,0.2H24.6z M24.6,19
		h0.9c0.5,0,0.8-0.1,1-0.3c0.2-0.2,0.3-0.5,0.3-0.9c0-0.2,0-0.3-0.1-0.5c-0.1-0.1-0.1-0.3-0.2-0.4s-0.2-0.2-0.4-0.2
		c-0.2-0.1-0.4-0.1-0.6-0.1h-0.9V19z"/>
	<path class="st3" d="M32,15.2c0.4,0,0.7,0.1,1,0.2c0.3,0.1,0.6,0.3,0.8,0.5c0.2,0.2,0.4,0.4,0.5,0.7c0.1,0.3,0.2,0.6,0.2,0.9
		c0,0.3,0,0.5-0.1,0.8c-0.1,0.2-0.2,0.5-0.3,0.7s-0.3,0.4-0.5,0.6c-0.2,0.2-0.4,0.4-0.6,0.6l-1.5,1.5c0.2-0.1,0.4-0.1,0.6-0.1
		c0.2,0,0.4,0,0.5,0h1.4c0.2,0,0.3,0,0.4,0.1c0.1,0.1,0.2,0.2,0.2,0.4v0.9h-5.3v-0.5c0-0.1,0-0.2,0.1-0.3c0-0.1,0.1-0.2,0.2-0.3
		l2.2-2.2c0.2-0.2,0.3-0.4,0.5-0.5s0.3-0.3,0.3-0.5s0.2-0.3,0.2-0.5s0.1-0.3,0.1-0.5c0-0.3-0.1-0.5-0.2-0.7
		c-0.1-0.2-0.4-0.2-0.7-0.2c-0.1,0-0.2,0-0.3,0.1c-0.1,0-0.2,0.1-0.3,0.1c-0.1,0.1-0.1,0.1-0.2,0.2c-0.1,0.1-0.1,0.2-0.1,0.3
		c-0.1,0.2-0.1,0.3-0.2,0.3c-0.1,0.1-0.2,0.1-0.3,0.1c0,0-0.1,0-0.1,0c0,0-0.1,0-0.1,0l-0.8-0.1c0.1-0.4,0.2-0.7,0.3-1
		c0.2-0.3,0.4-0.5,0.6-0.7c0.2-0.2,0.5-0.3,0.8-0.4C31.3,15.3,31.6,15.2,32,15.2z"/>
	<path class="st3" d="M37.2,20.3v2.5h-1.7v-7.5h2.7c0.5,0,1,0.1,1.4,0.2c0.4,0.1,0.7,0.3,0.9,0.5c0.2,0.2,0.4,0.5,0.5,0.8
		c0.1,0.3,0.2,0.6,0.2,1c0,0.4-0.1,0.7-0.2,1c-0.1,0.3-0.3,0.6-0.6,0.8c-0.2,0.2-0.6,0.4-0.9,0.5s-0.8,0.2-1.4,0.2H37.2z M37.2,19
		h0.9c0.5,0,0.8-0.1,1-0.3c0.2-0.2,0.3-0.5,0.3-0.9c0-0.2,0-0.3-0.1-0.5c-0.1-0.1-0.1-0.3-0.2-0.4s-0.2-0.2-0.4-0.2
		c-0.2-0.1-0.4-0.1-0.6-0.1h-0.9V19z"/>
</g>
</svg>
