<?xml version="1.0" encoding="utf-8"?>
<!-- Generator: Adobe Illustrator 22.0.1, SVG Export Plug-In . SVG Version: 6.00 Build 0)  -->
<svg version="1.1" id="Layer_1" xmlns="http://www.w3.org/2000/svg" xmlns:xlink="http://www.w3.org/1999/xlink" x="0px" y="0px"
	 viewBox="0 0 54 75" style="enable-background:new 0 0 54 75;" xml:space="preserve">
<style type="text/css">
	.st0{fill:#FFFFFF;}
	.st1{fill:#222222;}
	.st2{fill:#FFDB15;}
	.st3{fill:#731AED;}
	.st4{fill:none;stroke:#222222;stroke-width:2;stroke-linecap:round;stroke-linejoin:round;}
</style>
<title>5DBDAA96-B02C-4AAB-89F9-92B273648B4E</title>
<desc>Created with sketchtool.</desc>
<g id="total">
	<g id="_x30_3-5.-투자노하우-상세_x5F__x5B_MASV03Z09_x5D_" transform="translate(-45.000000, -532.000000)">
		<g id="con" transform="translate(17.000000, 92.000000)">
			<g id="_x22_동산-및-부동산_x22_" transform="translate(0.000000, 418.000000)">
				<g id="_x30_1" transform="translate(2.000000, 0.000000)">
					<g id="Group" transform="translate(26.000000, 22.000000)">
						<path id="Fill-1" class="st0" d="M27,74C12.7,74,1,62.3,1,48s11.7-26,26-26s26,11.7,26,26S41.3,74,27,74"/>
						<path id="Fill-3" class="st1" d="M27,21C12.1,21,0,33.1,0,48s12.1,27,27,27s27-12.1,27-27S41.9,21,27,21 M27,23.2
							c13.7,0,24.8,11.1,24.8,24.8S40.7,72.8,27,72.8S2.2,61.7,2.2,48S13.3,23.2,27,23.2"/>
						<path id="Fill-5" class="st2" d="M27,49V15c-0.4,0-0.9,0-1.3,0c-7.8,0-15,2.7-20.7,7.3L27,49z"/>
						<path id="Fill-1_1_" class="st3" d="M8.5,4.3c0.3,0,0.5,0,0.7-0.1C9.4,4.1,9.6,4,9.7,3.8c0.1-0.1,0.2-0.3,0.2-0.5
							C10,3.1,10,2.9,10,2.7c0-0.2,0-0.4-0.1-0.5C9.9,2,9.8,1.9,9.6,1.7C9.5,1.6,9.4,1.5,9.2,1.4C9,1.3,8.8,1.3,8.5,1.3
							c-0.3,0-0.5,0-0.7,0.1C7.7,1.5,7.5,1.6,7.4,1.7C7.3,1.9,7.2,2,7.1,2.2C7.1,2.4,7,2.6,7,2.7c0,0.2,0,0.4,0.1,0.6
							c0,0.2,0.1,0.4,0.2,0.5C7.5,4,7.6,4.1,7.8,4.2C8,4.3,8.2,4.3,8.5,4.3 M8.5,9C8.8,9,9,9,9.3,8.9c0.2-0.1,0.4-0.2,0.5-0.3
							C10,8.4,10.1,8.2,10.1,8c0.1-0.2,0.1-0.4,0.1-0.7c0-0.6-0.2-1-0.5-1.3C9.5,5.8,9.1,5.7,8.5,5.7c-0.5,0-1,0.1-1.3,0.4
							C6.9,6.4,6.8,6.8,6.8,7.4c0,0.2,0,0.5,0.1,0.7C7,8.2,7.1,8.4,7.2,8.5c0.1,0.1,0.3,0.3,0.5,0.3C8,9,8.2,9,8.5,9 M8.5,10.3
							c-0.5,0-1-0.1-1.4-0.2C6.7,10,6.3,9.8,6,9.5C5.7,9.3,5.4,9,5.3,8.6C5.1,8.2,5,7.8,5,7.4c0-0.6,0.1-1.1,0.4-1.5
							C5.7,5.5,6.2,5.2,6.8,5C6.3,4.8,5.9,4.5,5.7,4.1C5.5,3.7,5.3,3.2,5.3,2.7c0-0.4,0.1-0.7,0.2-1.1C5.7,1.3,5.9,1,6.2,0.8
							c0.3-0.2,0.6-0.4,1-0.6C7.6,0.1,8,0,8.5,0C9,0,9.4,0.1,9.8,0.2c0.4,0.1,0.7,0.3,1,0.6c0.3,0.2,0.5,0.5,0.7,0.9
							c0.2,0.3,0.2,0.7,0.2,1.1c0,0.5-0.1,1-0.4,1.4c-0.2,0.4-0.6,0.7-1.1,0.9c0.6,0.2,1.1,0.5,1.4,0.9C11.9,6.3,12,6.8,12,7.4
							c0,0.4-0.1,0.9-0.3,1.2c-0.2,0.4-0.4,0.7-0.7,0.9c-0.3,0.3-0.7,0.5-1.1,0.6C9.5,10.3,9,10.3,8.5,10.3"/>
						<path id="Fill-4" class="st3" d="M20.7,8.2c0-0.2,0-0.4-0.1-0.6c0-0.2-0.1-0.3-0.2-0.4c-0.1-0.1-0.2-0.2-0.3-0.2
							C20.1,7,20,7,19.8,7c-0.1,0-0.2,0-0.3,0.1s-0.2,0.1-0.3,0.2c-0.1,0.1-0.1,0.2-0.2,0.4C19,7.8,19,8,19,8.2c0,0.2,0,0.4,0.1,0.6
							c0,0.2,0.1,0.3,0.2,0.4c0.1,0.1,0.2,0.2,0.3,0.2c0.1,0,0.2,0.1,0.3,0.1c0.1,0,0.2,0,0.3-0.1c0.1,0,0.2-0.1,0.3-0.2
							s0.1-0.2,0.2-0.4C20.7,8.6,20.7,8.4,20.7,8.2z M21.8,8.2c0,0.3-0.1,0.6-0.2,0.9c-0.1,0.3-0.3,0.5-0.4,0.7s-0.4,0.3-0.6,0.4
							c-0.2,0.1-0.5,0.2-0.8,0.2c-0.3,0-0.6-0.1-0.8-0.2s-0.5-0.2-0.6-0.4S18.1,9.3,18,9.1c-0.1-0.3-0.2-0.6-0.2-0.9
							c0-0.3,0.1-0.6,0.2-0.9c0.1-0.3,0.2-0.5,0.4-0.7s0.4-0.3,0.6-0.4C19.3,6.1,19.5,6,19.8,6s0.6,0.1,0.8,0.2
							c0.2,0.1,0.5,0.2,0.6,0.4c0.2,0.2,0.3,0.4,0.4,0.7C21.8,7.6,21.8,7.9,21.8,8.2z M15.8,3.7c0-0.2,0-0.4-0.1-0.6
							c0-0.2-0.1-0.3-0.2-0.4s-0.2-0.2-0.3-0.2s-0.2-0.1-0.3-0.1s-0.2,0-0.3,0.1s-0.2,0.1-0.3,0.2c-0.1,0.1-0.1,0.2-0.2,0.4
							c0,0.2-0.1,0.4-0.1,0.6c0,0.2,0,0.4,0.1,0.6s0.1,0.3,0.2,0.4c0.1,0.1,0.2,0.2,0.3,0.2c0.1,0,0.2,0.1,0.3,0.1s0.2,0,0.3-0.1
							c0.1,0,0.2-0.1,0.3-0.2s0.1-0.2,0.2-0.4C15.8,4.1,15.8,3.9,15.8,3.7z M19.8,1.8c0-0.1,0.1-0.1,0.2-0.2c0.1,0,0.2-0.1,0.3-0.1
							h1.1L14.9,10c0,0.1-0.1,0.1-0.2,0.2c-0.1,0-0.2,0.1-0.3,0.1h-1.1L19.8,1.8z M16.9,3.7c0,0.3-0.1,0.6-0.2,0.9
							c-0.1,0.3-0.3,0.5-0.4,0.7c-0.2,0.2-0.4,0.3-0.6,0.4c-0.2,0.1-0.5,0.2-0.8,0.2c-0.3,0-0.6-0.1-0.8-0.2
							c-0.2-0.1-0.5-0.2-0.6-0.4c-0.2-0.2-0.3-0.4-0.4-0.7C13,4.3,12.9,4,12.9,3.7c0-0.3,0.1-0.6,0.1-0.9c0.1-0.3,0.2-0.5,0.4-0.7
							c0.2-0.2,0.4-0.3,0.6-0.4c0.2-0.1,0.5-0.2,0.8-0.2s0.6,0.1,0.8,0.2s0.5,0.2,0.6,0.4c0.2,0.2,0.3,0.4,0.4,0.7
							C16.9,3,16.9,3.3,16.9,3.7z"/>
						<path id="Stroke-7" class="st4" d="M27,49V15c-0.4,0-0.9,0-1.3,0c-7.8,0-15,2.7-20.7,7.3L27,49z"/>
					</g>
				</g>
			</g>
		</g>
	</g>
</g>
</svg>
