<?xml version="1.0" encoding="utf-8"?>
<!-- Generator: Adobe Illustrator 22.0.1, SVG Export Plug-In . SVG Version: 6.00 Build 0)  -->
<svg version="1.1" id="Layer_1" xmlns="http://www.w3.org/2000/svg" xmlns:xlink="http://www.w3.org/1999/xlink" x="0px" y="0px"
	 viewBox="0 0 74 65" style="enable-background:new 0 0 74 65;" xml:space="preserve">
<style type="text/css">
	.st0{fill:#D8D8D8;fill-opacity:0;}
	.st1{fill:none;stroke:#222222;stroke-width:2;}
	.st2{fill:#222222;}
	.st3{fill:#FFDB15;}
	.st4{fill:#D8D8D8;stroke:#222222;stroke-width:2;}
	.st5{fill:#8848FF;stroke:#222222;stroke-width:2;}
	.st6{enable-background:new    ;}
	.st7{fill:#FFFFFF;}
</style>
<title>A204EB60-CA4A-4C26-94F9-2D4A22CE1026</title>
<desc>Created with sketchtool.</desc>
<rect id="Area" class="st0" width="74" height="65"/>
<g id="Group-23" transform="translate(0.000000, 11.000000)">
	<path id="Path" class="st1" d="M19,35h35H19z"/>
	<path id="Path_1_" class="st1" d="M19,27h35H19z"/>
	<path id="Path_2_" class="st1" d="M19.3,19h35H19.3z"/>
	<path id="Path_3_" class="st1" d="M54,52.7V6H20v46.7H54z"/>
	<path id="Rectangle-11" class="st2" d="M1,52h72c0.6,0,1,0.4,1,1l0,0c0,0.6-0.4,1-1,1H1c-0.6,0-1-0.4-1-1l0,0C0,52.4,0.4,52,1,52z"
		/>
	<g id="Oval-3">
		<g>
			<circle id="path-1" class="st3" cx="7.4" cy="43.2" r="6.2"/>
		</g>
		<circle class="st1" cx="7.4" cy="43.2" r="5.2"/>
	</g>
	<path id="Rectangle-10" class="st2" d="M7.4,44.4L7.4,44.4c0.7,0,1.2,0.6,1.2,1.2v6.1c0,0.7-0.6,1.2-1.2,1.2l0,0
		c-0.7,0-1.2-0.6-1.2-1.2v-6.1C6.2,45,6.7,44.4,7.4,44.4z"/>
	<g id="Oval-3_1_">
		<g>
			<circle id="path-2" class="st3" cx="66.4" cy="43.2" r="6.2"/>
		</g>
		<circle class="st1" cx="66.4" cy="43.2" r="5.2"/>
	</g>
	<path id="Rectangle-10_1_" class="st2" d="M66.4,44.4L66.4,44.4c0.7,0,1.2,0.6,1.2,1.2v6.1c0,0.7-0.6,1.2-1.2,1.2h0
		c-0.7,0-1.2-0.6-1.2-1.2v-6.1C65.2,45,65.7,44.4,66.4,44.4z"/>
	<path id="Path_4_" class="st1" d="M18,4.5c0,0.6,0.5,1,1,1h36c0.6,0,1-0.5,1-1V1c0-0.6-0.5-1-1-1H19c-0.6,0-1,0.5-1,1V4.5z"/>
	<path id="Oval-46" class="st4" d="M42,52v-7c0-2.8-2.2-5-5-5s-5,2.2-5,5v7"/>
	<path id="Path-216" class="st1" d="M31,7.5v26.7"/>
	<path id="Path-216-Copy" class="st1" d="M43,7.5v26.7"/>
</g>
<g id="Rectangle-8">
	<path class="st5" d="M20,6h34c1.1,0,2,0.9,2,2v12c0,1.1-0.9,2-2,2H20c-1.1,0-2-0.9-2-2V8C18,6.9,18.9,6,20,6z"/>
</g>
<g class="st6">
	<path class="st7" d="M29,15.2V18h-1.5v-8h2.6c0.5,0,1,0.1,1.4,0.2c0.4,0.1,0.7,0.3,1,0.5s0.4,0.5,0.6,0.8c0.1,0.3,0.2,0.7,0.2,1
		c0,0.4-0.1,0.7-0.2,1.1c-0.1,0.3-0.3,0.6-0.6,0.8c-0.3,0.2-0.6,0.4-1,0.5c-0.4,0.1-0.8,0.2-1.4,0.2H29z M29,14.1h1.1
		c0.3,0,0.5,0,0.7-0.1c0.2-0.1,0.4-0.2,0.5-0.3c0.1-0.1,0.2-0.3,0.3-0.5c0.1-0.2,0.1-0.4,0.1-0.6c0-0.2,0-0.4-0.1-0.6
		c-0.1-0.2-0.2-0.3-0.3-0.4c-0.1-0.1-0.3-0.2-0.5-0.3s-0.4-0.1-0.7-0.1H29V14.1z"/>
	<path class="st7" d="M36.9,10c0.4,0,0.7,0.1,1,0.2s0.6,0.3,0.8,0.5c0.2,0.2,0.4,0.4,0.5,0.7c0.1,0.3,0.2,0.6,0.2,0.9
		c0,0.3,0,0.6-0.1,0.8s-0.2,0.5-0.3,0.7s-0.3,0.4-0.5,0.7c-0.2,0.2-0.4,0.4-0.6,0.6L36,16.9c0.2-0.1,0.3-0.1,0.5-0.1
		c0.2,0,0.3,0,0.5,0h2c0.1,0,0.3,0,0.3,0.1c0.1,0.1,0.1,0.2,0.1,0.3V18H34v-0.5c0-0.1,0-0.2,0.1-0.3c0-0.1,0.1-0.2,0.2-0.3l2.4-2.4
		c0.2-0.2,0.4-0.4,0.5-0.6c0.2-0.2,0.3-0.4,0.4-0.6s0.2-0.4,0.2-0.6c0.1-0.2,0.1-0.4,0.1-0.6c0-0.2,0-0.4-0.1-0.5
		c-0.1-0.1-0.1-0.3-0.2-0.4c-0.1-0.1-0.2-0.2-0.4-0.2c-0.1,0-0.3-0.1-0.5-0.1c-0.3,0-0.6,0.1-0.8,0.2s-0.4,0.4-0.4,0.7
		c0,0.1-0.1,0.2-0.2,0.3c-0.1,0.1-0.2,0.1-0.3,0.1c-0.1,0-0.1,0-0.2,0l-0.7-0.1c0.1-0.4,0.2-0.7,0.3-1s0.4-0.5,0.6-0.7
		s0.5-0.3,0.8-0.4C36.2,10,36.5,10,36.9,10z"/>
	<path class="st7" d="M42.3,15.2V18h-1.5v-8h2.6c0.5,0,1,0.1,1.4,0.2c0.4,0.1,0.7,0.3,1,0.5s0.4,0.5,0.6,0.8s0.2,0.7,0.2,1
		c0,0.4-0.1,0.7-0.2,1.1c-0.1,0.3-0.3,0.6-0.6,0.8c-0.3,0.2-0.6,0.4-1,0.5c-0.4,0.1-0.8,0.2-1.4,0.2H42.3z M42.3,14.1h1.1
		c0.3,0,0.5,0,0.7-0.1c0.2-0.1,0.4-0.2,0.5-0.3c0.1-0.1,0.2-0.3,0.3-0.5s0.1-0.4,0.1-0.6c0-0.2,0-0.4-0.1-0.6
		c-0.1-0.2-0.2-0.3-0.3-0.4c-0.1-0.1-0.3-0.2-0.5-0.3s-0.4-0.1-0.7-0.1h-1.1V14.1z"/>
</g>
</svg>
