<?xml version="1.0" encoding="utf-8"?>
<!-- Generator: Adobe Illustrator 22.0.1, SVG Export Plug-In . SVG Version: 6.00 Build 0)  -->
<svg version="1.1" id="Layer_1" xmlns="http://www.w3.org/2000/svg" xmlns:xlink="http://www.w3.org/1999/xlink" x="0px" y="0px"
	 viewBox="0 0 51.5 41.7" style="enable-background:new 0 0 51.5 41.7;" xml:space="preserve">
<style type="text/css">
	.st0{fill:#FFFFFF;stroke:#222222;stroke-width:2;stroke-linecap:round;stroke-linejoin:round;stroke-miterlimit:10;}
	.st1{fill:#222222;}
	.st2{fill:#00B389;}
	.st3{fill:#731AED;}
	.st4{fill:#8848FF;stroke:#222222;stroke-width:2;stroke-miterlimit:10;}
	.st5{fill:#FFFFFF;}
</style>
<path class="st0" d="M47,39.5H17c-1.6,0-3-1.3-3-3v-19c0-1.6,1.4-3,3-3h30c1.7,0,3,1.4,3,3v19C50,38.2,48.7,39.5,47,39.5z"/>
<circle class="st1" cx="39.2" cy="19.7" r="1.2"/>
<circle class="st1" cx="43.6" cy="19.7" r="1.2"/>
<rect x="18" y="31.5" class="st2" width="18" height="4"/>
<g>
	<path class="st0" d="M39,31.5H9c-1.7,0-3-1.4-3-3v-19c0-1.7,1.3-3,3-3h30c1.7,0,3,1.3,3,3v19C42,30.1,40.7,31.5,39,31.5z"/>
	<circle class="st1" cx="31.2" cy="11.7" r="1.2"/>
	<circle class="st1" cx="35.6" cy="11.7" r="1.2"/>
	<rect x="10" y="23.5" class="st3" width="18" height="4"/>
</g>
<path class="st4" d="M22.6,14.2H2.4c-0.5,0-1-0.5-1-1V2.5c0-0.5,0.4-1,1-1h20.2c0.5,0,1,0.5,1,1v10.7C23.6,13.7,23.2,14.2,22.6,14.2
	z"/>
<g>
	<path class="st5" d="M7.4,4.6c0.4,0,0.8,0,1.1,0.1S9,5,9.2,5.1s0.3,0.4,0.4,0.6C9.7,6,9.8,6.3,9.8,6.6c0,0.3,0,0.6-0.1,0.8
		S9.4,7.9,9.2,8C9,8.2,8.7,8.4,8.4,8.5C8.1,8.6,7.8,8.6,7.4,8.6H6.6v2.1H5.3V4.6H7.4z M7.4,7.6c0.4,0,0.7-0.1,0.9-0.3
		s0.3-0.5,0.3-0.8c0-0.2,0-0.3-0.1-0.4c0-0.1-0.1-0.2-0.2-0.3C8.1,5.7,8,5.7,7.9,5.6c-0.1,0-0.3-0.1-0.5-0.1H6.6v2.1H7.4z"/>
	<path class="st5" d="M14.1,9.7c0.1,0,0.2,0,0.3,0.1c0.1,0.1,0.1,0.2,0.1,0.3v0.7h-4.3v-0.4c0-0.1,0-0.2,0-0.2
		c0-0.1,0.1-0.2,0.2-0.2L12.3,8c0.2-0.2,0.3-0.3,0.4-0.4c0.1-0.1,0.2-0.3,0.3-0.4c0.1-0.1,0.1-0.3,0.2-0.4c0-0.1,0.1-0.3,0.1-0.4
		c0-0.3-0.1-0.5-0.2-0.6c-0.1-0.1-0.3-0.2-0.6-0.2c-0.1,0-0.2,0-0.3,0c-0.1,0-0.2,0.1-0.3,0.1c-0.1,0.1-0.1,0.1-0.2,0.2
		S11.6,6,11.5,6.1c-0.1,0.1-0.1,0.2-0.2,0.3c-0.1,0-0.2,0.1-0.4,0l-0.6-0.1c0-0.3,0.1-0.6,0.3-0.8s0.3-0.4,0.5-0.6
		c0.2-0.1,0.4-0.3,0.6-0.3c0.2-0.1,0.5-0.1,0.8-0.1c0.3,0,0.6,0,0.8,0.1s0.4,0.2,0.6,0.4c0.2,0.2,0.3,0.3,0.4,0.6
		c0.1,0.2,0.1,0.5,0.1,0.7c0,0.2,0,0.4-0.1,0.6c-0.1,0.2-0.2,0.4-0.3,0.5c-0.1,0.2-0.2,0.3-0.4,0.5c-0.1,0.2-0.3,0.3-0.5,0.5
		l-1.3,1.3c0.1,0,0.3-0.1,0.4-0.1c0.1,0,0.3,0,0.4,0H14.1z"/>
	<path class="st5" d="M17.6,4.6c0.4,0,0.8,0,1.1,0.1s0.6,0.2,0.8,0.4s0.3,0.4,0.4,0.6C20,6,20,6.3,20,6.6c0,0.3,0,0.6-0.1,0.8
		S19.6,7.9,19.4,8c-0.2,0.2-0.5,0.3-0.8,0.4c-0.3,0.1-0.7,0.1-1.1,0.1h-0.8v2.1h-1.3V4.6H17.6z M17.6,7.6c0.4,0,0.7-0.1,0.9-0.3
		s0.3-0.5,0.3-0.8c0-0.2,0-0.3-0.1-0.4c0-0.1-0.1-0.2-0.2-0.3c-0.1-0.1-0.2-0.2-0.4-0.2c-0.1,0-0.3-0.1-0.5-0.1h-0.8v2.1H17.6z"/>
</g>
</svg>
