<svg xmlns="http://www.w3.org/2000/svg" width="260" height="260" viewBox="0 0 260 260">
    <g fill="none" fill-rule="evenodd">
        <circle cx="130" cy="130" r="130" fill="#EEE"/>
        <g fill="#222">
            <path d="M169.47 62.814l-2.512.674a.866.866 0 1 0 .449 1.673l2.512-.673a.868.868 0 0 0 .613-1.061.868.868 0 0 0-1.062-.613zM190.928 66.93l-2.273-1.313a.874.874 0 1 0-.875 1.515l2.273 1.313a.874.874 0 1 0 .875-1.516zM182.687 71.04a.876.876 0 0 0-1.69.453l.68 2.535a.874.874 0 1 0 1.69-.453l-.68-2.535zM174.312 69.46a.874.874 0 0 0-1.195.32l-1.313 2.273a.874.874 0 1 0 1.516.875l1.312-2.273a.874.874 0 0 0-.32-1.195zM183.937 52.789a.874.874 0 0 0 1.195-.32l1.313-2.274a.874.874 0 1 0-1.516-.875l-1.312 2.274a.874.874 0 0 0 .32 1.195zM175.562 51.209a.876.876 0 0 0 1.69-.453l-.68-2.535a.874.874 0 1 0-1.69.453l.68 2.535zM190.012 59.104l2.511-.672a.87.87 0 0 0 .614-1.062.87.87 0 0 0-1.063-.614l-2.51.675a.866.866 0 1 0 .448 1.673zM170.469 55.117l-2.274-1.313a.874.874 0 1 0-.875 1.516l2.274 1.312a.874.874 0 1 0 .875-1.515z"/>
            <g opacity=".572">
                <path d="M173.854 61.055l-1.48-.129a.495.495 0 1 0-.087.986l1.48.13a.496.496 0 0 0 .087-.987zM184.572 67.459l-.964-1.15a.5.5 0 1 0-.766.644l.964 1.149a.5.5 0 1 0 .766-.643zM179.343 68.056a.5.5 0 0 0-.996-.088l-.13 1.495a.5.5 0 1 0 .996.087l.13-1.494zM175.155 65.57a.5.5 0 0 0-.704-.061l-1.15.964a.5.5 0 1 0 .643.766l1.15-.964a.5.5 0 0 0 .061-.705zM183.582 58.5a.5.5 0 0 0 .704.061l1.15-.964a.5.5 0 1 0-.644-.766l-1.149.964a.5.5 0 0 0-.061.705zM179.393 56.014a.5.5 0 0 0 .996.088l.131-1.494a.5.5 0 1 0-.996-.088l-.13 1.494zM185.61 63.078l1.48.13a.497.497 0 0 0 .086-.987l-1.48-.13a.495.495 0 1 0-.087.987zM175.895 57.117l-.965-1.149a.5.5 0 1 0-.766.643l.965 1.15a.5.5 0 1 0 .766-.644z"/>
            </g>
        </g>
        <g fill="#222">
            <path d="M67.581 82.684l-1.794.481a.618.618 0 1 0 .32 1.195l1.795-.48a.62.62 0 0 0-.32-1.196zM82.909 85.623l-1.624-.937a.624.624 0 1 0-.625 1.083l1.624.937a.624.624 0 1 0 .625-1.083zM77.022 88.56a.625.625 0 0 0-1.207.323l.485 1.811a.624.624 0 1 0 1.207-.323l-.485-1.811zM71.04 87.431a.624.624 0 0 0-.854.229l-.938 1.624a.624.624 0 1 0 1.083.625l.938-1.624a.624.624 0 0 0-.23-.854zM77.915 75.523c.3.173.68.07.854-.228l.937-1.624a.624.624 0 1 0-1.083-.625l-.937 1.624c-.173.299-.07.68.229.853zM71.933 74.395a.625.625 0 0 0 1.207-.324l-.485-1.81a.624.624 0 1 0-1.208.323l.486 1.81zM82.254 80.034l1.794-.48a.62.62 0 0 0 .438-.759.62.62 0 0 0-.759-.438l-1.793.482a.618.618 0 1 0 .32 1.195zM68.295 77.186l-1.624-.938a.624.624 0 1 0-.625 1.083l1.624.938a.624.624 0 1 0 .625-1.083z"/>
            <g opacity=".572">
                <path d="M70.713 81.428l-1.058-.092a.353.353 0 1 0-.061.704l1.057.093a.354.354 0 0 0 .062-.705zM78.369 86.002l-.69-.82a.357.357 0 1 0-.546.458l.688.821a.357.357 0 1 0 .548-.459zM74.634 86.428a.357.357 0 0 0-.712-.062l-.093 1.067a.357.357 0 1 0 .711.062l.094-1.067zM71.642 84.653a.357.357 0 0 0-.503-.044l-.82.689a.357.357 0 1 0 .458.547l.821-.689a.357.357 0 0 0 .044-.503zM77.661 79.602a.357.357 0 0 0 .503.045l.82-.69a.357.357 0 1 0-.458-.546l-.821.688a.357.357 0 0 0-.044.503zM74.67 77.827a.357.357 0 0 0 .71.063l.094-1.068a.357.357 0 1 0-.711-.062l-.094 1.067zM79.11 82.873l1.056.093a.355.355 0 0 0 .062-.706l-1.057-.092a.353.353 0 1 0-.062.705zM72.17 78.615l-.688-.82a.357.357 0 1 0-.548.458l.69.821a.357.357 0 1 0 .546-.459z"/>
            </g>
        </g>
        <g transform="translate(93.5 53)">
            <rect width="48" height="86" y="-1" fill="#FFF" stroke="#222" stroke-width="2" rx="5"/>
            <path stroke="#222" stroke-linecap="square" stroke-width="2" d="M.5 9.5h47M.5 71.5h47"/>
            <rect width="11.5" height="1.232" x="18" y="4" fill="#D8D8D8" rx=".616"/>
            <circle cx="24.286" cy="78.286" r="3.286" fill="#D8D8D8"/>
            <g stroke="#731AED" stroke-linecap="round" stroke-width="4.5">
                <path d="M15 40l6.91 6.91M34.09 33L22 46.818"/>
            </g>
        </g>
        <path fill="#FFF" stroke="#222" stroke-width="2" d="M173.3 130.516V108.55a4 4 0 0 0-4-4h-39a4 4 0 0 0-4 4v21.966h47z"/>
        <path fill="#D8D8D8" d="M131.6 111h14v4h-14zM131.6 117h21v2h-21z"/>
        <path fill="#EEE" stroke="#222" stroke-width="2" d="M126.26 130.558l-2.962 11.5a2 2 0 0 0 1.936 2.5h49.253a2 2 0 0 0 1.936-2.5l-2.962-11.5h-47.2z"/>
        <path fill="#FFF" d="M154.346 131.6h8.663l2.362 11.8h-10.237zM145.775 131.6h-8.663l-2.362 11.8h10.237z"/>
        <text fill="#D8D8D8" font-family="AppleSDGothicNeo-Heavy, Apple SD Gothic Neo" font-size="6" font-weight="600" letter-spacing="-.24" transform="translate(119 92)">
            <tspan x="34.83" y="34">Finnq</tspan>
        </text>
    </g>
</svg>
